<svg width="35" height="35" viewBox="0 0 35 35" fill="none" xmlns="http://www.w3.org/2000/svg">
<circle cx="17.5" cy="17.5" r="17" stroke="#E0E0E0"/>
<mask id="path-2-inside-1_7001_4481" fill="white">
<path d="M9 16.6923V15.3077H17.3077V7H18.6923V15.3077H27V16.6923H18.6923V25H17.3077V16.6923H9Z"/>
</mask>
<path d="M9 16.6923V15.3077H17.3077V7H18.6923V15.3077H27V16.6923H18.6923V25H17.3077V16.6923H9Z" fill="#FDFBFB"/>
<path d="M9 16.6923H7.38095V18.3114H9V16.6923ZM9 15.3077V13.6886H7.38095V15.3077H9ZM17.3077 15.3077V16.9267H18.9267V15.3077H17.3077ZM17.3077 7V5.38095H15.6886V7H17.3077ZM18.6923 7H20.3114V5.38095H18.6923V7ZM18.6923 15.3077H17.0733V16.9267H18.6923V15.3077ZM27 15.3077H28.619V13.6886H27V15.3077ZM27 16.6923V18.3114H28.619V16.6923H27ZM18.6923 16.6923V15.0733H17.0733V16.6923H18.6923ZM18.6923 25V26.619H20.3114V25H18.6923ZM17.3077 25H15.6886V26.619H17.3077V25ZM17.3077 16.6923H18.9267V15.0733H17.3077V16.6923ZM9 16.6923H10.619V15.3077H9H7.38095V16.6923H9ZM9 15.3077V16.9267H17.3077V15.3077V13.6886H9V15.3077ZM17.3077 15.3077H18.9267V7H17.3077H15.6886V15.3077H17.3077ZM17.3077 7V8.61905H18.6923V7V5.38095H17.3077V7ZM18.6923 7H17.0733V15.3077H18.6923H20.3114V7H18.6923ZM18.6923 15.3077V16.9267H27V15.3077V13.6886H18.6923V15.3077ZM27 15.3077H25.381V16.6923H27H28.619V15.3077H27ZM27 16.6923V15.0733H18.6923V16.6923V18.3114H27V16.6923ZM18.6923 16.6923H17.0733V25H18.6923H20.3114V16.6923H18.6923ZM18.6923 25V23.381H17.3077V25V26.619H18.6923V25ZM17.3077 25H18.9267V16.6923H17.3077H15.6886V25H17.3077ZM17.3077 16.6923V15.0733H9V16.6923V18.3114H17.3077V16.6923Z" fill="black" mask="url(#path-2-inside-1_7001_4481)"/>
</svg>
