<svg width="21" height="20" viewBox="0 0 21 20" fill="none" xmlns="http://www.w3.org/2000/svg">
<path d="M2.75 8.75V18.75M17.75 10.75V18.75M17.75 0.75V4.75M10.25 0.75V10.75M2.75 0.75V2.75M10.25 16.75V18.75M0.75 7.25C0.75 6.784 0.75 6.551 0.826 6.367C0.927709 6.12246 1.12227 5.92826 1.367 5.827C1.551 5.75 1.784 5.75 2.25 5.75H3.25C3.716 5.75 3.949 5.75 4.133 5.826C4.37754 5.92771 4.57174 6.12227 4.673 6.367C4.75 6.551 4.75 6.784 4.75 7.25C4.75 7.716 4.75 7.949 4.674 8.133C4.57229 8.37754 4.37773 8.57174 4.133 8.673C3.949 8.75 3.716 8.75 3.25 8.75H2.25C1.784 8.75 1.551 8.75 1.367 8.674C1.12246 8.57229 0.928257 8.37773 0.827 8.133C0.75 7.949 0.75 7.716 0.75 7.25ZM15.75 9.25C15.75 8.784 15.75 8.551 15.826 8.367C15.9277 8.12246 16.1223 7.92826 16.367 7.827C16.551 7.75 16.784 7.75 17.25 7.75H18.25C18.716 7.75 18.949 7.75 19.133 7.826C19.3775 7.92771 19.5717 8.12227 19.673 8.367C19.75 8.551 19.75 8.784 19.75 9.25C19.75 9.716 19.75 9.949 19.674 10.133C19.5723 10.3775 19.3777 10.5717 19.133 10.673C18.949 10.75 18.716 10.75 18.25 10.75H17.25C16.784 10.75 16.551 10.75 16.367 10.674C16.1225 10.5723 15.9283 10.3777 15.827 10.133C15.75 9.949 15.75 9.716 15.75 9.25ZM8.25 12.25C8.25 11.784 8.25 11.551 8.326 11.367C8.42771 11.1225 8.62227 10.9283 8.867 10.827C9.051 10.75 9.284 10.75 9.75 10.75H10.75C11.216 10.75 11.449 10.75 11.633 10.826C11.8775 10.9277 12.0717 11.1223 12.173 11.367C12.25 11.551 12.25 11.784 12.25 12.25C12.25 12.716 12.25 12.949 12.174 13.133C12.0723 13.3775 11.8777 13.5717 11.633 13.673C11.449 13.75 11.216 13.75 10.75 13.75H9.75C9.284 13.75 9.051 13.75 8.867 13.674C8.62246 13.5723 8.42826 13.3777 8.327 13.133C8.25 12.949 8.25 12.716 8.25 12.25Z" stroke="black" stroke-width="1.5" stroke-linecap="round" stroke-linejoin="round"/>
</svg>
