<svg width="45" height="45" viewBox="0 0 45 45" fill="none" xmlns="http://www.w3.org/2000/svg">
<circle cx="22.5" cy="22.5" r="22.5" fill="#FFEDD5"/>
<path d="M29.3476 30.1862C31.4407 28.3074 32.7347 25.6983 32.9635 22.8951C33.1924 20.0918 32.3387 17.3073 30.5781 15.114C28.8174 12.9207 26.2834 11.4851 23.497 11.1023C20.7105 10.7196 17.8833 11.4187 15.5964 13.056C13.3095 14.6934 11.7367 17.1445 11.2012 19.9057C10.6657 22.6668 11.2082 25.5282 12.7172 27.9017C14.2263 30.2753 16.5872 31.9806 19.3147 32.6672C22.0422 33.3538 24.9291 32.9696 27.382 31.5934L25.7902 28.756C24.0627 29.7251 22.0297 29.9957 20.1089 29.5121C18.1881 29.0286 16.5255 27.8277 15.4628 26.1562C14.4001 24.4847 14.0181 22.4696 14.3952 20.5251C14.7723 18.5806 15.8799 16.8545 17.4904 15.7014C19.1009 14.5484 21.0919 14.056 23.0542 14.3255C25.0165 14.5951 26.801 15.6061 28.0409 17.1507C29.2808 18.6953 29.882 20.6562 29.7208 22.6303C29.5597 24.6045 28.6484 26.4419 27.1744 27.7649L29.3476 30.1862Z" fill="#10B981"/>
<path d="M29.3476 30.1862C31.4407 28.3074 32.7347 25.6983 32.9635 22.8951C33.1924 20.0918 32.3387 17.3073 30.5781 15.114C28.8174 12.9207 26.2834 11.4851 23.497 11.1023C20.7105 10.7196 17.8833 11.4187 15.5964 13.056C13.3095 14.6934 11.7367 17.1445 11.2012 19.9057C10.6657 22.6668 11.2082 25.5282 12.7172 27.9017C14.2263 30.2753 16.5872 31.9806 19.3147 32.6672C22.0422 33.3538 24.9291 32.9696 27.382 31.5934L25.7902 28.756C24.0627 29.7251 22.0297 29.9957 20.1089 29.5121C18.1881 29.0286 16.5255 27.8277 15.4628 26.1562C14.4001 24.4847 14.0181 22.4696 14.3952 20.5251C14.7723 18.5806 15.8799 16.8545 17.4904 15.7014C19.1009 14.5484 21.0919 14.056 23.0542 14.3255C25.0165 14.5951 26.801 15.6061 28.0409 17.1507C29.2808 18.6953 29.882 20.6562 29.7208 22.6303C29.5597 24.6045 28.6484 26.4419 27.1744 27.7649L29.3476 30.1862Z" fill="#10B981"/>
<path d="M27.6064 31.4277C28.1321 31.1228 28.6317 30.7748 29.0999 30.3874L27.026 27.8807C26.6962 28.1535 26.3444 28.3985 25.9742 28.6133L27.6064 31.4277Z" fill="#FF7B17"/>
</svg>
