<svg width="45" height="45" viewBox="0 0 45 45" fill="none" xmlns="http://www.w3.org/2000/svg">
<circle cx="22.5" cy="22.5" r="22.5" fill="#F3E8FF"/>
<path d="M29 20.1994C28.9997 19.9539 28.9277 19.7127 28.7912 19.5001C28.6547 19.2875 28.4585 19.111 28.2222 18.9882L22.7778 16.1876C22.5413 16.0647 22.2731 16 22 16C21.7269 16 21.4587 16.0647 21.2222 16.1876L15.7778 18.9882C15.5415 19.111 15.3453 19.2875 15.2088 19.5001C15.0723 19.7127 15.0003 19.9539 15 20.1994V25.8006C15.0003 26.0461 15.0723 26.2873 15.2088 26.4999C15.3453 26.7125 15.5415 26.889 15.7778 27.0118L21.2222 29.8124C21.4587 29.9353 21.7269 30 22 30C22.2731 30 22.5413 29.9353 22.7778 29.8124L28.2222 27.0118C28.4585 26.889 28.6547 26.7125 28.7912 26.4999C28.9277 26.2873 28.9997 26.0461 29 25.8006V20.1994Z" stroke="#D244F9" stroke-width="2" stroke-linecap="round" stroke-linejoin="round"/>
<path d="M15.2163 19.251L21.4996 22.5013M21.4996 22.5013L27.783 19.251M21.4996 22.5013V29.002" stroke="#D244F9" stroke-width="2" stroke-linecap="round" stroke-linejoin="round"/>
</svg>
