<svg width="20" height="20" viewBox="0 0 20 20" fill="none" xmlns="http://www.w3.org/2000/svg">
<path d="M19 6.39926C18.9996 6.08354 18.9071 5.77346 18.7315 5.50012C18.556 5.22678 18.3037 4.9998 18 4.84194L11 1.2412C10.696 1.08319 10.3511 1 10 1C9.64893 1 9.30404 1.08319 9 1.2412L2 4.84194C1.69626 4.9998 1.44398 5.22678 1.26846 5.50012C1.09294 5.77346 1.00036 6.08354 1 6.39926V13.6007C1.00036 13.9165 1.09294 14.2265 1.26846 14.4999C1.44398 14.7732 1.69626 15.0002 2 15.1581L9 18.7588C9.30404 18.9168 9.64893 19 10 19C10.3511 19 10.696 18.9168 11 18.7588L18 15.1581C18.3037 15.0002 18.556 14.7732 18.7315 14.4999C18.9071 14.2265 18.9996 13.9165 19 13.6007V6.39926Z" stroke="black" stroke-width="2" stroke-linecap="round" stroke-linejoin="round"/>
<path d="M1.27808 5.18018L9.35665 9.35918M9.35665 9.35918L17.4352 5.18018M9.35665 9.35918V17.7172" stroke="black" stroke-width="2" stroke-linecap="round" stroke-linejoin="round"/>
</svg>
