<svg width="18" height="22" viewBox="0 0 18 22" fill="none" xmlns="http://www.w3.org/2000/svg">
<mask id="path-1-inside-1_7001_2974" fill="white">
<path d="M9.53216 21.2579L9.52016 21.2599L9.44916 21.2949L9.42916 21.2989L9.41516 21.2949L9.34416 21.2589C9.33349 21.2563 9.32549 21.2583 9.32016 21.2649L9.31616 21.2749L9.29916 21.7029L9.30416 21.7229L9.31416 21.7359L9.41816 21.8099L9.43316 21.8139L9.44516 21.8099L9.54916 21.7359L9.56116 21.7199L9.56516 21.7029L9.54816 21.2759C9.54549 21.2653 9.54016 21.2593 9.53216 21.2579ZM9.79616 21.1449L9.78216 21.1469L9.59816 21.2399L9.58816 21.2499L9.58516 21.2609L9.60316 21.6909L9.60816 21.7029L9.61616 21.7109L9.81716 21.8029C9.82983 21.8063 9.83949 21.8036 9.84616 21.7949L9.85016 21.7809L9.81616 21.1669C9.81283 21.1543 9.80616 21.1469 9.79616 21.1449ZM9.08116 21.1469C9.07675 21.1443 9.07149 21.1434 9.06646 21.1445C9.06143 21.1456 9.05702 21.1487 9.05416 21.1529L9.04816 21.1669L9.01416 21.7809C9.01483 21.7929 9.02049 21.8009 9.03116 21.8049L9.04616 21.8029L9.24716 21.7099L9.25716 21.7019L9.26016 21.6909L9.27816 21.2609L9.27516 21.2489L9.26516 21.2389L9.08116 21.1469Z"/>
</mask>
<path d="M9.53216 21.2579L9.69656 20.2715L9.53213 20.2441L9.3677 20.2716L9.53216 21.2579ZM9.52016 21.2599L9.3557 20.2736L9.21026 20.2978L9.07801 20.363L9.52016 21.2599ZM9.44916 21.2949L9.64527 22.2755L9.77377 22.2498L9.89131 22.1919L9.44916 21.2949ZM9.42916 21.2989L9.15446 22.2605L9.38755 22.3271L9.62527 22.2795L9.42916 21.2989ZM9.41516 21.2949L8.96294 22.1868L9.04836 22.2302L9.14046 22.2565L9.41516 21.2949ZM9.34416 21.2589L9.79638 20.367L9.69595 20.3161L9.5867 20.2888L9.34416 21.2589ZM9.32016 21.2649L8.53929 20.6402L8.44671 20.756L8.39167 20.8936L9.32016 21.2649ZM9.31616 21.2749L8.38767 20.9036L8.32378 21.0633L8.31695 21.2352L9.31616 21.2749ZM9.29916 21.7029L8.29995 21.6632L8.29426 21.8064L8.32902 21.9455L9.29916 21.7029ZM9.30416 21.7229L8.33402 21.9655L8.38454 22.1675L8.51153 22.3326L9.30416 21.7229ZM9.31416 21.7359L8.52153 22.3456L8.61264 22.4641L8.73441 22.5507L9.31416 21.7359ZM9.41816 21.8099L8.8384 22.6247L8.98577 22.7296L9.16052 22.7762L9.41816 21.8099ZM9.43316 21.8139L9.17552 22.7802L9.46507 22.8574L9.74936 22.7626L9.43316 21.8139ZM9.44516 21.8099L9.76137 22.7586L9.90314 22.7114L10.0249 22.6247L9.44516 21.8099ZM9.54916 21.7359L10.1289 22.5507L10.2558 22.4605L10.3492 22.3359L9.54916 21.7359ZM9.56116 21.7199L10.3612 22.3199L10.4867 22.1526L10.5346 21.949L9.56116 21.7199ZM9.56516 21.7029L10.5386 21.932L10.5698 21.7993L10.5644 21.6632L9.56516 21.7029ZM9.54816 21.2759L10.5474 21.2362L10.5433 21.1333L10.5183 21.0334L9.54816 21.2759ZM9.79616 21.1449L9.99228 20.1644L9.82435 20.1308L9.65481 20.155L9.79616 21.1449ZM9.78216 21.1469L9.64081 20.157L9.47792 20.1802L9.33107 20.2545L9.78216 21.1469ZM9.59816 21.2399L9.14707 20.3475L9.00423 20.4197L8.89105 20.5328L9.59816 21.2399ZM9.58816 21.2499L8.88105 20.5428L8.69325 20.7306L8.62338 20.9869L9.58816 21.2499ZM9.58516 21.2609L8.62038 20.9979L8.57954 21.1476L8.58604 21.3028L9.58516 21.2609ZM9.60316 21.6909L8.60403 21.7328L8.61149 21.911L8.6801 22.0756L9.60316 21.6909ZM9.60816 21.7029L8.6851 22.0876L8.76117 22.2701L8.90101 22.41L9.60816 21.7029ZM9.61616 21.7109L8.90901 22.418L9.03629 22.5453L9.19998 22.6202L9.61616 21.7109ZM9.81716 21.8029L9.40097 22.7122L9.47933 22.7481L9.56267 22.77L9.81716 21.8029ZM9.84616 21.7949L10.6388 22.4046L10.7552 22.2533L10.8077 22.0696L9.84616 21.7949ZM9.85016 21.7809L10.8117 22.0556L10.8579 21.8938L10.8486 21.7256L9.85016 21.7809ZM9.81616 21.1669L10.8146 21.1116L10.809 21.0105L10.7832 20.9124L9.81616 21.1669ZM9.08116 21.1469L8.56287 22.0021L8.59761 22.0232L8.63394 22.0414L9.08116 21.1469ZM9.05416 21.1529L8.22245 20.5977L8.17131 20.6743L8.13503 20.759L9.05416 21.1529ZM9.04816 21.1669L8.12903 20.773L8.05945 20.9353L8.04969 21.1116L9.04816 21.1669ZM9.01416 21.7809L8.01569 21.7256L8.01262 21.781L8.0157 21.8364L9.01416 21.7809ZM9.03116 21.8049L8.68004 22.7413L8.91483 22.8293L9.16338 22.7962L9.03116 21.8049ZM9.04616 21.8029L9.17838 22.7942L9.32857 22.7741L9.46608 22.7105L9.04616 21.8029ZM9.24716 21.7099L9.66708 22.6175L9.77713 22.5666L9.87182 22.4908L9.24716 21.7099ZM9.25716 21.7019L9.88182 22.4828L10.1362 22.2793L10.2219 21.965L9.25716 21.7019ZM9.26016 21.6909L10.2249 21.954L10.2546 21.8453L10.2593 21.7328L9.26016 21.6909ZM9.27816 21.2609L10.2773 21.3028L10.2833 21.1585L10.2483 21.0184L9.27816 21.2609ZM9.27516 21.2489L10.2453 21.0064L10.1781 20.7377L9.98227 20.5418L9.27516 21.2489ZM9.26516 21.2389L9.97227 20.5318L9.85752 20.4171L9.71238 20.3445L9.26516 21.2389ZM9.53216 21.2579L9.3677 20.2716L9.3557 20.2736L9.52016 21.2599L9.68462 22.2463L9.69662 22.2443L9.53216 21.2579ZM9.52016 21.2599L9.07801 20.363L9.00701 20.398L9.44916 21.2949L9.89131 22.1919L9.96231 22.1569L9.52016 21.2599ZM9.44916 21.2949L9.25305 20.3144L9.23305 20.3184L9.42916 21.2989L9.62527 22.2795L9.64527 22.2755L9.44916 21.2949ZM9.42916 21.2989L9.70386 20.3374L9.68986 20.3334L9.41516 21.2949L9.14046 22.2565L9.15446 22.2605L9.42916 21.2989ZM9.41516 21.2949L9.86738 20.403L9.79638 20.367L9.34416 21.2589L8.89194 22.1508L8.96294 22.1868L9.41516 21.2949ZM9.34416 21.2589L9.5867 20.2888C9.47316 20.2604 9.29513 20.2364 9.08771 20.2883C8.86334 20.3443 8.67358 20.4724 8.53929 20.6402L9.32016 21.2649L10.101 21.8896C9.97207 22.0508 9.78898 22.1745 9.57261 22.2286C9.37319 22.2784 9.2045 22.2548 9.10162 22.2291L9.34416 21.2589ZM9.32016 21.2649L8.39167 20.8936L8.38767 20.9036L9.31616 21.2749L10.2446 21.6463L10.2486 21.6363L9.32016 21.2649ZM9.31616 21.2749L8.31695 21.2352L8.29995 21.6632L9.29916 21.7029L10.2984 21.7426L10.3154 21.3146L9.31616 21.2749ZM9.29916 21.7029L8.32902 21.9455L8.33402 21.9655L9.30416 21.7229L10.2743 21.4804L10.2693 21.4604L9.29916 21.7029ZM9.30416 21.7229L8.51153 22.3326L8.52153 22.3456L9.31416 21.7359L10.1068 21.1262L10.0968 21.1132L9.30416 21.7229ZM9.31416 21.7359L8.73441 22.5507L8.8384 22.6247L9.41816 21.8099L9.99791 20.9951L9.89392 20.9211L9.31416 21.7359ZM9.41816 21.8099L9.16052 22.7762L9.17552 22.7802L9.43316 21.8139L9.6908 20.8477L9.6758 20.8437L9.41816 21.8099ZM9.43316 21.8139L9.74936 22.7626L9.76137 22.7586L9.44516 21.8099L9.12895 20.8612L9.11695 20.8652L9.43316 21.8139ZM9.44516 21.8099L10.0249 22.6247L10.1289 22.5507L9.54916 21.7359L8.96941 20.9211L8.86541 20.9951L9.44516 21.8099ZM9.54916 21.7359L10.3492 22.3359L10.3612 22.3199L9.56116 21.7199L8.76115 21.12L8.74915 21.136L9.54916 21.7359ZM9.56116 21.7199L10.5346 21.949L10.5386 21.932L9.56516 21.7029L8.59174 21.4739L8.58774 21.4909L9.56116 21.7199ZM9.56516 21.7029L10.5644 21.6632L10.5474 21.2362L9.54816 21.2759L8.54895 21.3157L8.56595 21.7427L9.56516 21.7029ZM9.54816 21.2759L10.5183 21.0334C10.46 20.8003 10.2405 20.3622 9.69656 20.2715L9.53216 21.2579L9.36776 22.2443C9.14888 22.2079 8.94562 22.0975 8.79475 21.9278C8.65803 21.774 8.60207 21.6147 8.57802 21.5185L9.54816 21.2759ZM9.79616 21.1449L9.65481 20.155L9.64081 20.157L9.78216 21.1469L9.92351 22.1369L9.93751 22.1349L9.79616 21.1449ZM9.78216 21.1469L9.33107 20.2545L9.14707 20.3475L9.59816 21.2399L10.0493 22.1324L10.2333 22.0394L9.78216 21.1469ZM9.59816 21.2399L8.89105 20.5328L8.88105 20.5428L9.58816 21.2499L10.2953 21.957L10.3053 21.947L9.59816 21.2399ZM9.58816 21.2499L8.62338 20.9869L8.62038 20.9979L9.58516 21.2609L10.5499 21.524L10.5529 21.513L9.58816 21.2499ZM9.58516 21.2609L8.58604 21.3028L8.60403 21.7328L9.60316 21.6909L10.6023 21.6491L10.5843 21.2191L9.58516 21.2609ZM9.60316 21.6909L8.6801 22.0756L8.6851 22.0876L9.60816 21.7029L10.5312 21.3183L10.5262 21.3063L9.60316 21.6909ZM9.60816 21.7029L8.90101 22.41L8.90901 22.418L9.61616 21.7109L10.3233 21.0039L10.3153 20.9959L9.60816 21.7029ZM9.61616 21.7109L9.19998 22.6202L9.40097 22.7122L9.81716 21.8029L10.2333 20.8937L10.0323 20.8017L9.61616 21.7109ZM9.81716 21.8029L9.56267 22.77C9.68877 22.8032 9.88038 22.828 10.0998 22.7674C10.3332 22.7031 10.5157 22.5647 10.6388 22.4046L9.84616 21.7949L9.05354 21.1852C9.16997 21.0339 9.34427 20.9012 9.56801 20.8394C9.77777 20.7816 9.95821 20.806 10.0717 20.8359L9.81716 21.8029ZM9.84616 21.7949L10.8077 22.0696L10.8117 22.0556L9.85016 21.7809L8.88863 21.5062L8.88463 21.5202L9.84616 21.7949ZM9.85016 21.7809L10.8486 21.7256L10.8146 21.1116L9.81616 21.1669L8.81769 21.2222L8.85169 21.8362L9.85016 21.7809ZM9.81616 21.1669L10.7832 20.9124C10.7156 20.6554 10.4888 20.2637 9.99228 20.1644L9.79616 21.1449L9.60004 22.1255C9.40207 22.0859 9.21355 21.9839 9.06875 21.8246C8.93466 21.6772 8.87571 21.5226 8.84909 21.4214L9.81616 21.1669ZM9.08116 21.1469L9.59945 20.2917C9.37458 20.1555 9.10593 20.1114 8.84953 20.1683L9.06646 21.1445L9.28339 22.1207C9.03705 22.1754 8.77892 22.1331 8.56287 22.0021L9.08116 21.1469ZM9.06646 21.1445L8.84953 20.1683C8.59306 20.2253 8.36839 20.3791 8.22245 20.5977L9.05416 21.1529L9.88587 21.7081C9.74565 21.9182 9.52979 22.0659 9.28339 22.1207L9.06646 21.1445ZM9.05416 21.1529L8.13503 20.759L8.12903 20.773L9.04816 21.1669L9.96729 21.5609L9.97329 21.5469L9.05416 21.1529ZM9.04816 21.1669L8.04969 21.1116L8.01569 21.7256L9.01416 21.7809L10.0126 21.8362L10.0466 21.2222L9.04816 21.1669ZM9.01416 21.7809L8.0157 21.8364C8.02411 21.9878 8.06905 22.185 8.20289 22.374C8.3392 22.5664 8.51854 22.6807 8.68004 22.7413L9.03116 21.8049L9.38228 20.8686C9.53311 20.9252 9.70428 21.0335 9.83493 21.2179C9.96311 21.3989 10.0049 21.5861 10.0126 21.7255L9.01416 21.7809ZM9.03116 21.8049L9.16338 22.7962L9.17838 22.7942L9.04616 21.8029L8.91394 20.8117L8.89894 20.8137L9.03116 21.8049ZM9.04616 21.8029L9.46608 22.7105L9.66708 22.6175L9.24716 21.7099L8.82724 20.8024L8.62624 20.8954L9.04616 21.8029ZM9.24716 21.7099L9.87182 22.4908L9.88182 22.4828L9.25716 21.7019L8.6325 20.921L8.6225 20.929L9.24716 21.7099ZM9.25716 21.7019L10.2219 21.965L10.2249 21.954L9.26016 21.6909L8.29538 21.4279L8.29238 21.4389L9.25716 21.7019ZM9.26016 21.6909L10.2593 21.7328L10.2773 21.3028L9.27816 21.2609L8.27904 21.2191L8.26103 21.6491L9.26016 21.6909ZM9.27816 21.2609L10.2483 21.0184L10.2453 21.0064L9.27516 21.2489L8.30503 21.4915L8.30803 21.5035L9.27816 21.2609ZM9.27516 21.2489L9.98227 20.5418L9.97227 20.5318L9.26516 21.2389L8.55805 21.946L8.56805 21.956L9.27516 21.2489ZM9.26516 21.2389L9.71238 20.3445L9.52838 20.2525L9.08116 21.1469L8.63394 22.0414L8.81794 22.1334L9.26516 21.2389Z" fill="black" mask="url(#path-1-inside-1_7001_2974)"/>
<path d="M10.3516 17.75C10.3145 17.7799 10.2773 17.8103 10.2383 17.8379C9.90567 18.0729 9.51622 18.2121 9.1123 18.2432L8.93848 18.25H8.9375C8.47211 18.2502 8.01776 18.1065 7.6377 17.8379C7.59856 17.8102 7.56154 17.78 7.52441 17.75H10.3516ZM8.93848 0.75C10.596 0.750083 12.1854 1.40903 13.3574 2.58105C14.5294 3.75314 15.1885 5.34247 15.1885 7V10.5283L15.2002 10.7314C15.2238 10.9322 15.2822 11.1279 15.373 11.3096V11.3105L17.0889 14.7432H17.0898C17.1165 14.7965 17.1287 14.8564 17.126 14.916C17.1233 14.9755 17.1055 15.0333 17.0742 15.084C17.0428 15.1347 16.9984 15.177 16.9463 15.2061C16.8943 15.2349 16.8358 15.25 16.7764 15.25H1.09961C1.04018 15.2499 0.981623 15.235 0.929688 15.2061C0.877636 15.177 0.834099 15.1347 0.802734 15.084C0.771412 15.0333 0.752723 14.9755 0.75 14.916C0.747319 14.8564 0.760421 14.7965 0.787109 14.7432L2.50391 11.3105L2.50488 11.3096C2.59572 11.1273 2.65353 10.9308 2.67676 10.7295L2.68848 10.5273V7C2.68848 5.34255 3.34666 3.75313 4.51855 2.58105C5.69066 1.40895 7.28087 0.75 8.93848 0.75Z" stroke="black" stroke-width="1.5"/>
</svg>
