<svg width="18" height="20" viewBox="0 0 18 20" fill="none" xmlns="http://www.w3.org/2000/svg">
<mask id="path-1-inside-1_3272_7206" fill="white">
<path d="M16.3125 1.5H13.875V0.5625C13.875 0.413316 13.8157 0.270242 13.7102 0.164752C13.6048 0.0592632 13.4617 0 13.3125 0C13.1633 0 13.0202 0.0592632 12.9148 0.164752C12.8093 0.270242 12.75 0.413316 12.75 0.5625V1.5H4.875V0.5625C4.875 0.413316 4.81574 0.270242 4.71025 0.164752C4.60476 0.0592632 4.46168 0 4.3125 0C4.16332 0 4.02024 0.0592632 3.91475 0.164752C3.80926 0.270242 3.75 0.413316 3.75 0.5625V1.5H1.3125C0.964403 1.5 0.630564 1.63828 0.384422 1.88442C0.138281 2.13056 0 2.4644 0 2.8125V17.8125C0 18.1606 0.138281 18.4944 0.384422 18.7406C0.630564 18.9867 0.964403 19.125 1.3125 19.125H16.3125C16.6606 19.125 16.9944 18.9867 17.2406 18.7406C17.4867 18.4944 17.625 18.1606 17.625 17.8125V2.8125C17.625 2.4644 17.4867 2.13056 17.2406 1.88442C16.9944 1.63828 16.6606 1.5 16.3125 1.5ZM1.3125 2.625H3.75V3.5625C3.75 3.71168 3.80926 3.85476 3.91475 3.96025C4.02024 4.06574 4.16332 4.125 4.3125 4.125C4.46168 4.125 4.60476 4.06574 4.71025 3.96025C4.81574 3.85476 4.875 3.71168 4.875 3.5625V2.625H12.75V3.5625C12.75 3.71168 12.8093 3.85476 12.9148 3.96025C13.0202 4.06574 13.1633 4.125 13.3125 4.125C13.4617 4.125 13.6048 4.06574 13.7102 3.96025C13.8157 3.85476 13.875 3.71168 13.875 3.5625V2.625H16.3125C16.3622 2.625 16.4099 2.64475 16.4451 2.67992C16.4802 2.71508 16.5 2.76277 16.5 2.8125V6H1.125V2.8125C1.125 2.76277 1.14475 2.71508 1.17992 2.67992C1.21508 2.64475 1.26277 2.625 1.3125 2.625ZM16.3125 18H1.3125C1.26277 18 1.21508 17.9802 1.17992 17.9451C1.14475 17.9099 1.125 17.8622 1.125 17.8125V7.125H16.5V17.8125C16.5 17.8622 16.4802 17.9099 16.4451 17.9451C16.4099 17.9802 16.3622 18 16.3125 18ZM7.125 9.5625V15.5625C7.125 15.7117 7.06574 15.8548 6.96025 15.9602C6.85476 16.0657 6.71168 16.125 6.5625 16.125C6.41332 16.125 6.27024 16.0657 6.16475 15.9602C6.05926 15.8548 6 15.7117 6 15.5625V10.4728L5.31375 10.8159C5.24764 10.8489 5.17567 10.8686 5.10197 10.8738C5.02826 10.8789 4.95426 10.8696 4.88418 10.8461C4.8141 10.8227 4.74932 10.7857 4.69353 10.7373C4.63775 10.6888 4.59206 10.6299 4.55906 10.5637C4.52607 10.4976 4.50642 10.4257 4.50124 10.352C4.49605 10.2783 4.50544 10.2043 4.52886 10.1342C4.55227 10.0641 4.58926 9.99932 4.63772 9.94353C4.68617 9.88775 4.74514 9.84206 4.81125 9.80906L6.31125 9.05906C6.39702 9.01624 6.49232 8.99605 6.58808 9.00041C6.68385 9.00477 6.77692 9.03354 6.85844 9.08397C6.93997 9.13441 7.00725 9.20485 7.0539 9.2886C7.10055 9.37235 7.12503 9.46663 7.125 9.5625ZM12.7097 12.3047L10.6875 15H12.5625C12.7117 15 12.8548 15.0593 12.9602 15.1648C13.0657 15.2702 13.125 15.4133 13.125 15.5625C13.125 15.7117 13.0657 15.8548 12.9602 15.9602C12.8548 16.0657 12.7117 16.125 12.5625 16.125H9.5625C9.45804 16.125 9.35564 16.0959 9.26678 16.041C9.17791 15.9861 9.1061 15.9075 9.05939 15.8141C9.01267 15.7206 8.99289 15.616 9.00227 15.512C9.01165 15.4079 9.04982 15.3086 9.1125 15.225L11.8125 11.625C11.8902 11.5228 11.9462 11.4058 11.9768 11.2811C12.0075 11.1565 12.0122 11.0268 11.9907 10.9003C11.9693 10.7737 11.922 10.6529 11.8519 10.5454C11.7818 10.4378 11.6904 10.3458 11.5833 10.275C11.4761 10.2043 11.3556 10.1562 11.2292 10.134C11.1028 10.1117 10.9731 10.1156 10.8483 10.1455C10.7234 10.1754 10.606 10.2306 10.5034 10.3077C10.4007 10.3848 10.315 10.4822 10.2516 10.5938C10.218 10.6637 10.1704 10.7259 10.1116 10.7766C10.0529 10.8272 9.98426 10.8652 9.91013 10.888C9.83601 10.9109 9.75796 10.9181 9.68088 10.9094C9.60381 10.9006 9.52938 10.876 9.46227 10.8371C9.39516 10.7982 9.33683 10.7459 9.29093 10.6833C9.24503 10.6208 9.21256 10.5495 9.19556 10.4738C9.17856 10.3981 9.1774 10.3197 9.19214 10.2436C9.20689 10.1674 9.23723 10.0951 9.28125 10.0312C9.42261 9.78856 9.61206 9.5773 9.83796 9.41042C10.0639 9.24354 10.3215 9.12456 10.595 9.06077C10.8685 8.99697 11.1522 8.98972 11.4286 9.03944C11.705 9.08917 11.9684 9.19483 12.2025 9.34994C12.4367 9.50506 12.6367 9.70636 12.7902 9.9415C12.9438 10.1767 13.0478 10.4407 13.0957 10.7174C13.1436 10.9942 13.1345 11.2778 13.069 11.5509C13.0034 11.824 12.8827 12.0808 12.7144 12.3056L12.7097 12.3047Z"/>
</mask>
<path d="M16.3125 1.5H13.875V0.5625C13.875 0.413316 13.8157 0.270242 13.7102 0.164752C13.6048 0.0592632 13.4617 0 13.3125 0C13.1633 0 13.0202 0.0592632 12.9148 0.164752C12.8093 0.270242 12.75 0.413316 12.75 0.5625V1.5H4.875V0.5625C4.875 0.413316 4.81574 0.270242 4.71025 0.164752C4.60476 0.0592632 4.46168 0 4.3125 0C4.16332 0 4.02024 0.0592632 3.91475 0.164752C3.80926 0.270242 3.75 0.413316 3.75 0.5625V1.5H1.3125C0.964403 1.5 0.630564 1.63828 0.384422 1.88442C0.138281 2.13056 0 2.4644 0 2.8125V17.8125C0 18.1606 0.138281 18.4944 0.384422 18.7406C0.630564 18.9867 0.964403 19.125 1.3125 19.125H16.3125C16.6606 19.125 16.9944 18.9867 17.2406 18.7406C17.4867 18.4944 17.625 18.1606 17.625 17.8125V2.8125C17.625 2.4644 17.4867 2.13056 17.2406 1.88442C16.9944 1.63828 16.6606 1.5 16.3125 1.5ZM1.3125 2.625H3.75V3.5625C3.75 3.71168 3.80926 3.85476 3.91475 3.96025C4.02024 4.06574 4.16332 4.125 4.3125 4.125C4.46168 4.125 4.60476 4.06574 4.71025 3.96025C4.81574 3.85476 4.875 3.71168 4.875 3.5625V2.625H12.75V3.5625C12.75 3.71168 12.8093 3.85476 12.9148 3.96025C13.0202 4.06574 13.1633 4.125 13.3125 4.125C13.4617 4.125 13.6048 4.06574 13.7102 3.96025C13.8157 3.85476 13.875 3.71168 13.875 3.5625V2.625H16.3125C16.3622 2.625 16.4099 2.64475 16.4451 2.67992C16.4802 2.71508 16.5 2.76277 16.5 2.8125V6H1.125V2.8125C1.125 2.76277 1.14475 2.71508 1.17992 2.67992C1.21508 2.64475 1.26277 2.625 1.3125 2.625ZM16.3125 18H1.3125C1.26277 18 1.21508 17.9802 1.17992 17.9451C1.14475 17.9099 1.125 17.8622 1.125 17.8125V7.125H16.5V17.8125C16.5 17.8622 16.4802 17.9099 16.4451 17.9451C16.4099 17.9802 16.3622 18 16.3125 18ZM7.125 9.5625V15.5625C7.125 15.7117 7.06574 15.8548 6.96025 15.9602C6.85476 16.0657 6.71168 16.125 6.5625 16.125C6.41332 16.125 6.27024 16.0657 6.16475 15.9602C6.05926 15.8548 6 15.7117 6 15.5625V10.4728L5.31375 10.8159C5.24764 10.8489 5.17567 10.8686 5.10197 10.8738C5.02826 10.8789 4.95426 10.8696 4.88418 10.8461C4.8141 10.8227 4.74932 10.7857 4.69353 10.7373C4.63775 10.6888 4.59206 10.6299 4.55906 10.5637C4.52607 10.4976 4.50642 10.4257 4.50124 10.352C4.49605 10.2783 4.50544 10.2043 4.52886 10.1342C4.55227 10.0641 4.58926 9.99932 4.63772 9.94353C4.68617 9.88775 4.74514 9.84206 4.81125 9.80906L6.31125 9.05906C6.39702 9.01624 6.49232 8.99605 6.58808 9.00041C6.68385 9.00477 6.77692 9.03354 6.85844 9.08397C6.93997 9.13441 7.00725 9.20485 7.0539 9.2886C7.10055 9.37235 7.12503 9.46663 7.125 9.5625ZM12.7097 12.3047L10.6875 15H12.5625C12.7117 15 12.8548 15.0593 12.9602 15.1648C13.0657 15.2702 13.125 15.4133 13.125 15.5625C13.125 15.7117 13.0657 15.8548 12.9602 15.9602C12.8548 16.0657 12.7117 16.125 12.5625 16.125H9.5625C9.45804 16.125 9.35564 16.0959 9.26678 16.041C9.17791 15.9861 9.1061 15.9075 9.05939 15.8141C9.01267 15.7206 8.99289 15.616 9.00227 15.512C9.01165 15.4079 9.04982 15.3086 9.1125 15.225L11.8125 11.625C11.8902 11.5228 11.9462 11.4058 11.9768 11.2811C12.0075 11.1565 12.0122 11.0268 11.9907 10.9003C11.9693 10.7737 11.922 10.6529 11.8519 10.5454C11.7818 10.4378 11.6904 10.3458 11.5833 10.275C11.4761 10.2043 11.3556 10.1562 11.2292 10.134C11.1028 10.1117 10.9731 10.1156 10.8483 10.1455C10.7234 10.1754 10.606 10.2306 10.5034 10.3077C10.4007 10.3848 10.315 10.4822 10.2516 10.5938C10.218 10.6637 10.1704 10.7259 10.1116 10.7766C10.0529 10.8272 9.98426 10.8652 9.91013 10.888C9.83601 10.9109 9.75796 10.9181 9.68088 10.9094C9.60381 10.9006 9.52938 10.876 9.46227 10.8371C9.39516 10.7982 9.33683 10.7459 9.29093 10.6833C9.24503 10.6208 9.21256 10.5495 9.19556 10.4738C9.17856 10.3981 9.1774 10.3197 9.19214 10.2436C9.20689 10.1674 9.23723 10.0951 9.28125 10.0312C9.42261 9.78856 9.61206 9.5773 9.83796 9.41042C10.0639 9.24354 10.3215 9.12456 10.595 9.06077C10.8685 8.99697 11.1522 8.98972 11.4286 9.03944C11.705 9.08917 11.9684 9.19483 12.2025 9.34994C12.4367 9.50506 12.6367 9.70636 12.7902 9.9415C12.9438 10.1767 13.0478 10.4407 13.0957 10.7174C13.1436 10.9942 13.1345 11.2778 13.069 11.5509C13.0034 11.824 12.8827 12.0808 12.7144 12.3056L12.7097 12.3047Z" fill="black" stroke="white" stroke-width="2.6" mask="url(#path-1-inside-1_3272_7206)"/>
</svg>
