<svg width="24" height="24" viewBox="0 0 24 24" fill="none" xmlns="http://www.w3.org/2000/svg">
<path d="M22.0106 1.72549H19.2447V0.647059C19.2447 0.475448 19.1774 0.310866 19.0577 0.189519C18.938 0.068172 18.7757 0 18.6064 0C18.4371 0 18.2747 0.068172 18.155 0.189519C18.0353 0.310866 17.9681 0.475448 17.9681 0.647059V1.72549H9.03192V0.647059C9.03192 0.475448 8.96467 0.310866 8.84496 0.189519C8.72526 0.068172 8.5629 0 8.39362 0C8.22433 0 8.06198 0.068172 7.94227 0.189519C7.82257 0.310866 7.75532 0.475448 7.75532 0.647059V1.72549H4.98936C4.59436 1.72549 4.21553 1.88456 3.93622 2.1677C3.65691 2.45084 3.5 2.83487 3.5 3.23529V20.4902C3.5 20.8906 3.65691 21.2746 3.93622 21.5578C4.21553 21.8409 4.59436 22 4.98936 22H22.0106C22.4056 22 22.7845 21.8409 23.0638 21.5578C23.3431 21.2746 23.5 20.8906 23.5 20.4902V3.23529C23.5 2.83487 23.3431 2.45084 23.0638 2.1677C22.7845 1.88456 22.4056 1.72549 22.0106 1.72549ZM4.98936 3.01961H7.75532V4.09804C7.75532 4.26965 7.82257 4.43423 7.94227 4.55558C8.06198 4.67693 8.22433 4.7451 8.39362 4.7451C8.5629 4.7451 8.72526 4.67693 8.84496 4.55558C8.96467 4.43423 9.03192 4.26965 9.03192 4.09804V3.01961H17.9681V4.09804C17.9681 4.26965 18.0353 4.43423 18.155 4.55558C18.2747 4.67693 18.4371 4.7451 18.6064 4.7451C18.7757 4.7451 18.938 4.67693 19.0577 4.55558C19.1774 4.43423 19.2447 4.26965 19.2447 4.09804V3.01961H22.0106C22.0671 3.01961 22.1212 3.04233 22.1611 3.08278C22.201 3.12323 22.2234 3.17809 22.2234 3.23529V6.90196H4.7766V3.23529C4.7766 3.17809 4.79901 3.12323 4.83891 3.08278C4.87881 3.04233 4.93293 3.01961 4.98936 3.01961ZM22.0106 20.7059H4.98936C4.93293 20.7059 4.87881 20.6832 4.83891 20.6427C4.79901 20.6023 4.7766 20.5474 4.7766 20.4902V8.19608H22.2234V20.4902C22.2234 20.5474 22.201 20.6023 22.1611 20.6427C22.1212 20.6832 22.0671 20.7059 22.0106 20.7059ZM11.5851 11V17.902C11.5851 18.0736 11.5179 18.2382 11.3982 18.3595C11.2784 18.4808 11.1161 18.549 10.9468 18.549C10.7775 18.549 10.6152 18.4808 10.4955 18.3595C10.3758 18.2382 10.3085 18.0736 10.3085 17.902V12.0472L9.52979 12.4419C9.45477 12.4798 9.37311 12.5024 9.28947 12.5084C9.20583 12.5143 9.12185 12.5035 9.04233 12.4766C8.96281 12.4497 8.8893 12.4071 8.826 12.3514C8.7627 12.2956 8.71084 12.2278 8.6734 12.1518C8.63596 12.0757 8.61367 11.9929 8.60778 11.9081C8.6019 11.8234 8.61255 11.7382 8.63913 11.6576C8.6657 11.577 8.70768 11.5025 8.76266 11.4383C8.81764 11.3741 8.88455 11.3216 8.95957 11.2836L10.6617 10.4209C10.759 10.3716 10.8672 10.3484 10.9758 10.3534C11.0845 10.3584 11.1901 10.3915 11.2826 10.4495C11.3751 10.5076 11.4515 10.5886 11.5044 10.6849C11.5574 10.7813 11.5851 10.8897 11.5851 11ZM17.9223 14.1544L15.6277 17.2549H17.7553C17.9246 17.2549 18.087 17.3231 18.2067 17.4444C18.3264 17.5658 18.3936 17.7304 18.3936 17.902C18.3936 18.0736 18.3264 18.2382 18.2067 18.3595C18.087 18.4808 17.9246 18.549 17.7553 18.549H14.3511C14.2325 18.549 14.1163 18.5156 14.0155 18.4524C13.9147 18.3892 13.8332 18.2988 13.7802 18.1913C13.7271 18.0839 13.7047 17.9635 13.7153 17.8439C13.726 17.7242 13.7693 17.6099 13.8404 17.5137L16.9043 13.3725C16.9925 13.255 17.056 13.1204 17.0908 12.977C17.1255 12.8336 17.1309 12.6845 17.1065 12.5389C17.0821 12.3933 17.0285 12.2543 16.949 12.1306C16.8694 12.0069 16.7657 11.901 16.6441 11.8196C16.5226 11.7382 16.3858 11.683 16.2424 11.6574C16.0989 11.6317 15.9518 11.6362 15.8101 11.6706C15.6684 11.705 15.5352 11.7685 15.4187 11.8572C15.3023 11.9459 15.205 12.0579 15.133 12.1863C15.0949 12.2667 15.0408 12.3383 14.9742 12.3966C14.9075 12.4548 14.8297 12.4985 14.7455 12.5248C14.6614 12.5511 14.5729 12.5594 14.4854 12.5494C14.3979 12.5393 14.3135 12.511 14.2373 12.4662C14.1612 12.4215 14.095 12.3613 14.0429 12.2893C13.9908 12.2174 13.954 12.1353 13.9347 12.0483C13.9154 11.9612 13.9141 11.871 13.9308 11.7834C13.9475 11.6958 13.982 11.6127 14.0319 11.5392C14.1923 11.26 14.4073 11.017 14.6636 10.8251C14.92 10.6331 15.2123 10.4962 15.5227 10.4228C15.8331 10.3495 16.155 10.3411 16.4686 10.3983C16.7823 10.4555 17.0811 10.5771 17.3468 10.7555C17.6125 10.9339 17.8395 11.1655 18.0138 11.436C18.188 11.7065 18.306 12.0102 18.3604 12.3285C18.4148 12.6469 18.4044 12.9731 18.33 13.2873C18.2556 13.6014 18.1187 13.8969 17.9277 14.1555L17.9223 14.1544Z" fill="black"/>
</svg>
