<svg width="250" height="250" viewBox="0 0 250 250" fill="none" xmlns="http://www.w3.org/2000/svg">
<path d="M208.496 218.025C232.281 196.676 246.985 167.027 249.586 135.172C252.187 103.316 242.486 71.6747 222.478 46.7504C202.47 21.8262 173.675 5.5129 142.011 1.16338C110.347 -3.18615 78.2199 4.75858 52.2326 23.3647C26.2452 41.9708 8.37216 69.8246 2.28693 101.201C-3.79829 132.578 2.36663 165.094 19.5146 192.066C36.6626 219.037 63.4908 238.416 94.4851 246.219C125.48 254.021 158.285 249.655 186.16 234.017L168.071 201.773C148.441 212.786 125.338 215.86 103.511 210.366C81.6835 204.871 62.7903 191.224 50.7142 172.23C38.6382 153.235 34.2966 130.337 38.582 108.24C42.8674 86.144 55.4541 66.5285 73.7552 53.4256C92.0563 40.3227 114.681 34.7277 136.98 37.7908C159.279 40.8539 179.557 52.3422 193.647 69.8945C207.737 87.4469 214.569 109.73 212.737 132.163C210.906 154.597 200.551 175.477 183.8 190.511L208.496 218.025Z" fill="#10B981"/>
<path d="M188.711 232.132C194.685 228.667 200.362 224.713 205.683 220.311L182.115 191.825C178.368 194.925 174.37 197.71 170.163 200.15L188.711 232.132Z" fill="#FF7B17"/>
</svg>
