<svg width="20" height="18" viewBox="0 0 20 18" fill="none" xmlns="http://www.w3.org/2000/svg">
<path d="M10.6171 17.5551L10.6083 17.5567L10.5514 17.5847L10.5354 17.5879L10.5242 17.5847L10.4674 17.5567C10.4588 17.554 10.4524 17.5553 10.4481 17.5607L10.4449 17.5687L10.4313 17.9114L10.4353 17.9274L10.4433 17.9378L10.5266 17.997L10.5386 18.0002L10.5482 17.997L10.6315 17.9378L10.6411 17.925L10.6443 17.9114L10.6307 17.5695C10.6286 17.5609 10.624 17.5561 10.6171 17.5551ZM10.8293 17.4646L10.8189 17.4662L10.6707 17.5406L10.6627 17.5487L10.6603 17.5575L10.6747 17.9018L10.6787 17.9114L10.6851 17.917L10.8461 17.9914C10.8562 17.9941 10.864 17.992 10.8693 17.985L10.8725 17.9738L10.8453 17.4822C10.8426 17.4726 10.8373 17.4667 10.8293 17.4646ZM10.2568 17.4662C10.2532 17.464 10.249 17.4634 10.245 17.4642C10.241 17.4651 10.2374 17.4676 10.2352 17.471L10.2303 17.4822L10.2031 17.9738C10.2037 17.9834 10.2082 17.9898 10.2167 17.993L10.2287 17.9914L10.3897 17.917L10.3977 17.9106L10.4009 17.9018L10.4145 17.5575L10.4121 17.5479L10.4041 17.5398L10.2568 17.4662Z" fill="black"/>
<path d="M9.60828 0C14.9149 0 19.2166 3.82367 19.2166 8.5407C19.2166 13.2577 14.9149 17.0814 9.60828 17.0814C4.30163 17.0814 0 13.2577 0 8.5407C0 3.82367 4.30163 0 9.60828 0ZM9.60828 1.70814C7.56966 1.70814 5.61454 2.428 4.17302 3.70935C2.7315 4.9907 1.92166 6.72859 1.92166 8.5407C1.92166 10.3528 2.7315 12.0907 4.17302 13.372C5.61454 14.6534 7.56966 15.3733 9.60828 15.3733C11.6469 15.3733 13.602 14.6534 15.0435 13.372C16.4851 12.0907 17.2949 10.3528 17.2949 8.5407C17.2949 6.72859 16.4851 4.9907 15.0435 3.70935C13.602 2.428 11.6469 1.70814 9.60828 1.70814ZM9.60828 3.41628C9.84362 3.41631 10.0708 3.49311 10.2466 3.63211C10.4225 3.77112 10.5349 3.96267 10.5624 4.17042L10.5691 4.27035V8.18711L13.1701 10.4991C13.3424 10.6528 13.4424 10.859 13.4499 11.0759C13.4573 11.2928 13.3716 11.5041 13.2102 11.6668C13.0487 11.8296 12.8236 11.9316 12.5806 11.9522C12.3376 11.9728 12.0949 11.9104 11.9018 11.7776L11.8115 11.7067L8.92898 9.14452C8.77964 9.01167 8.68374 8.83877 8.6561 8.65258L8.64746 8.5407V4.27035C8.64746 4.04383 8.74868 3.8266 8.92887 3.66643C9.10907 3.50626 9.35346 3.41628 9.60828 3.41628Z" fill="black"/>
</svg>
