<svg width="24" height="24" viewBox="0 0 24 24" fill="none" xmlns="http://www.w3.org/2000/svg">
<path fill-rule="evenodd" clip-rule="evenodd" d="M12 1C5.92487 1 1 5.92487 1 12C1 18.0751 5.92487 23 12 23C18.0751 23 23 18.0751 23 12C23 5.92487 18.0751 1 12 1ZM8 10C8 7.79086 9.79086 6 12 6C14.2091 6 16 7.79086 16 10C16 12.2091 14.2091 14 12 14C9.79086 14 8 12.2091 8 10ZM18 18.9251C17.7921 17.2767 16.3412 16 14.5824 16H9.41761C7.65876 16 6.20792 17.2767 6 18.9251C7.63339 20.2218 9.72282 21 12 21C14.2772 21 16.3666 20.2218 18 18.9251Z" fill="#FF7B17"/>
</svg>
