<svg width="10" height="11" viewBox="0 0 10 11" fill="none" xmlns="http://www.w3.org/2000/svg">
<path fill-rule="evenodd" clip-rule="evenodd" d="M9.84736 0.146393C9.94109 0.240157 9.99375 0.367311 9.99375 0.499893C9.99375 0.632475 9.94109 0.75963 9.84736 0.853394L3.84736 6.85339C3.75359 6.94713 3.62644 6.99979 3.49386 6.99979C3.36127 6.99979 3.23412 6.94713 3.14036 6.85339L0.140356 3.85339C0.0492769 3.75909 -0.00112031 3.63279 1.89013e-05 3.50169C0.00115811 3.37059 0.0537425 3.24519 0.146447 3.15248C0.239151 3.05978 0.364557 3.00719 0.495655 3.00606C0.626754 3.00492 0.753055 3.05531 0.847356 3.14639L3.49736 5.79639L9.14736 0.146393C9.24112 0.0526573 9.36827 0 9.50086 0C9.63344 0 9.76059 0.0526573 9.85436 0.146393H9.84736Z" fill="#FFFDFD"/>
<path fill-rule="evenodd" clip-rule="evenodd" d="M9.84736 4.14639C9.94109 4.24016 9.99375 4.36731 9.99375 4.49989C9.99375 4.63248 9.94109 4.75963 9.84736 4.85339L3.84736 10.8534C3.75359 10.9471 3.62644 10.9998 3.49386 10.9998C3.36127 10.9998 3.23412 10.9471 3.14036 10.8534L0.140356 7.85339C0.0492769 7.75909 -0.00112031 7.63279 1.89013e-05 7.50169C0.00115811 7.37059 0.0537425 7.24519 0.146447 7.15248C0.239151 7.05978 0.364557 7.00719 0.495655 7.00606C0.626754 7.00492 0.753055 7.05531 0.847356 7.14639L3.49736 9.79639L9.14736 4.14639C9.24112 4.05266 9.36827 4 9.50086 4C9.63344 4 9.76059 4.05266 9.85436 4.14639H9.84736Z" fill="#FFFDFD"/>
</svg>
