<svg width="21" height="21" viewBox="0 0 21 21" fill="none" xmlns="http://www.w3.org/2000/svg">
<path d="M19.0976 6.61931C19.0972 6.3067 19.0055 5.99967 18.8317 5.72902C18.6579 5.45837 18.4081 5.23363 18.1073 5.07732L11.1755 1.51202C10.8744 1.35556 10.5329 1.27319 10.1853 1.27319C9.83761 1.27319 9.49609 1.35556 9.19501 1.51202L2.26321 5.07732C1.96243 5.23363 1.7126 5.45837 1.5388 5.72902C1.36499 5.99967 1.27331 6.3067 1.27295 6.61931V13.7499C1.27331 14.0625 1.36499 14.3695 1.5388 14.6402C1.7126 14.9108 1.96243 15.1356 2.26321 15.2919L9.19501 18.8572C9.49609 19.0137 9.83761 19.096 10.1853 19.096C10.5329 19.096 10.8744 19.0137 11.1755 18.8572L18.1073 15.2919C18.4081 15.1356 18.6579 14.9108 18.8317 14.6402C19.0055 14.3695 19.0972 14.0625 19.0976 13.7499V6.61931Z" stroke="#3B82F6" stroke-width="2.54625" stroke-linecap="round" stroke-linejoin="round"/>
<path d="M1.54834 5.41138L9.54821 9.54967M9.54821 9.54967L17.5481 5.41138M9.54821 9.54967V17.8263" stroke="#3B82F6" stroke-width="2.54638" stroke-linecap="round" stroke-linejoin="round"/>
</svg>
