<svg width="24" height="24" viewBox="0 0 24 24" fill="none" xmlns="http://www.w3.org/2000/svg">
<path d="M12.0373 18.9733C12.3324 18.9733 12.5813 18.872 12.784 18.6693C12.9867 18.4667 13.088 18.2178 13.088 17.9227C13.088 17.6276 12.9858 17.3787 12.7813 17.176C12.5787 16.9733 12.3298 16.872 12.0347 16.872C11.7396 16.872 11.4907 16.9738 11.288 17.1773C11.0853 17.3809 10.9844 17.6298 10.9853 17.924C10.9853 18.2191 11.0867 18.468 11.2893 18.6707C11.4938 18.8733 11.7431 18.9747 12.0373 18.9747M12.004 24C10.3453 24 8.78533 23.6853 7.324 23.056C5.86356 22.4258 4.59289 21.5707 3.512 20.4907C2.43111 19.4107 1.57556 18.1413 0.945333 16.6827C0.315111 15.224 0 13.6644 0 12.004C0 10.3436 0.315111 8.78355 0.945333 7.324C1.57467 5.86355 2.42844 4.59289 3.50667 3.512C4.58489 2.43111 5.85467 1.57556 7.316 0.945333C8.77733 0.315111 10.3373 0 11.996 0C13.6547 0 15.2147 0.315111 16.676 0.945333C18.1364 1.57467 19.4071 2.42889 20.488 3.508C21.5689 4.58711 22.4244 5.85689 23.0547 7.31733C23.6849 8.77778 24 10.3373 24 11.996C24 13.6547 23.6853 15.2147 23.056 16.676C22.4267 18.1373 21.5716 19.408 20.4907 20.488C19.4098 21.568 18.1404 22.4236 16.6827 23.0547C15.2249 23.6858 13.6653 24.0009 12.004 24ZM12 22.6667C14.9778 22.6667 17.5 21.6333 19.5667 19.5667C21.6333 17.5 22.6667 14.9778 22.6667 12C22.6667 9.02222 21.6333 6.5 19.5667 4.43333C17.5 2.36667 14.9778 1.33333 12 1.33333C9.02222 1.33333 6.5 2.36667 4.43333 4.43333C2.36667 6.5 1.33333 9.02222 1.33333 12C1.33333 14.9778 2.36667 17.5 4.43333 19.5667C6.5 21.6333 9.02222 22.6667 12 22.6667ZM12.0827 6.31867C12.7582 6.31867 13.3396 6.528 13.8267 6.94667C14.3156 7.36533 14.56 7.88933 14.56 8.51867C14.56 9.00755 14.4222 9.44933 14.1467 9.844C13.8729 10.2387 13.5556 10.6027 13.1947 10.936C12.7378 11.3502 12.3356 11.8058 11.988 12.3027C11.6404 12.8004 11.4409 13.3484 11.3893 13.9467C11.3724 14.1209 11.4271 14.2667 11.5533 14.384C11.6778 14.5004 11.8244 14.5587 11.9933 14.5587C12.172 14.5587 12.3227 14.4991 12.4453 14.38C12.5671 14.26 12.6444 14.1187 12.6773 13.956C12.7662 13.5071 12.9449 13.1076 13.2133 12.7573C13.4809 12.408 13.7751 12.0773 14.096 11.7653C14.5573 11.3067 14.9667 10.8067 15.324 10.2653C15.6822 9.72489 15.8613 9.12178 15.8613 8.456C15.8613 7.47733 15.4898 6.66933 14.7467 6.032C14.0044 5.39556 13.1333 5.07733 12.1333 5.07733C11.392 5.07733 10.7018 5.25067 10.0627 5.59733C9.42444 5.944 8.91378 6.424 8.53067 7.03733C8.44356 7.18489 8.41556 7.33733 8.44667 7.49467C8.47778 7.652 8.56222 7.77155 8.7 7.85333C8.876 7.94578 9.05378 7.96711 9.23333 7.91733C9.41289 7.86755 9.57111 7.76444 9.708 7.608C10.004 7.24 10.3524 6.93333 10.7533 6.688C11.1533 6.44089 11.5964 6.31867 12.0827 6.31867Z" fill="black"/>
</svg>
