<svg width="45" height="45" viewBox="0 0 45 45" fill="none" xmlns="http://www.w3.org/2000/svg">
<circle cx="22.5" cy="22.5" r="22.5" fill="#DBEAFE"/>
<path d="M30.8246 19.3461C30.8243 19.0335 30.7326 18.7265 30.5588 18.4558C30.385 18.1852 30.1352 17.9604 29.8344 17.8041L22.9026 14.2388C22.6015 14.0824 22.26 14 21.9123 14C21.5647 14 21.2231 14.0824 20.9221 14.2388L13.9903 17.8041C13.6895 17.9604 13.4397 18.1852 13.2658 18.4558C13.092 18.7265 13.0004 19.0335 13 19.3461V26.4767C13.0004 26.7893 13.092 27.0964 13.2658 27.367C13.4397 27.6376 13.6895 27.8624 13.9903 28.0187L20.9221 31.584C21.2231 31.7405 21.5647 31.8228 21.9123 31.8228C22.26 31.8228 22.6015 31.7405 22.9026 31.584L29.8344 28.0187C30.1352 27.8624 30.385 27.6376 30.5588 27.367C30.7326 27.0964 30.8243 26.7893 30.8246 26.4767V19.3461Z" stroke="#3B82F6" stroke-width="2.54625" stroke-linecap="round" stroke-linejoin="round"/>
<path d="M13.2754 18.1382L21.2753 22.2765M21.2753 22.2765L29.2751 18.1382M21.2753 22.2765V30.5531" stroke="#3B82F6" stroke-width="2.54638" stroke-linecap="round" stroke-linejoin="round"/>
</svg>
