<svg width="24" height="24" viewBox="0 0 24 24" fill="none" xmlns="http://www.w3.org/2000/svg">
<path d="M11.6201 2.60156C11.8326 2.39898 12.1674 2.39899 12.3799 2.60156L21.3799 11.1846C21.4885 11.2883 21.5498 11.4319 21.5498 11.582V21C21.5498 21.3038 21.3038 21.5498 21 21.5498H14.4502V17C14.4502 15.6469 13.3531 14.5498 12 14.5498C10.6469 14.5498 9.5498 15.6469 9.5498 17V21.5498H3C2.69624 21.5498 2.4502 21.3038 2.4502 21V11.582C2.45024 11.4319 2.51154 11.2883 2.62012 11.1846L11.6201 2.60156ZM20.4502 11.8174L20.3105 11.6846L12.3105 4.05566L12 3.75977L11.6895 4.05566L3.68945 11.6846L3.5498 11.8174V20.4502H8.4502V17C8.4502 15.0394 10.0394 13.4502 12 13.4502C13.9606 13.4502 15.5498 15.0394 15.5498 17V20.4502H20.4502V11.8174Z" stroke="black" stroke-width="0.9"/>
</svg>
