<svg width="32" height="32" viewBox="0 0 32 32" fill="none" xmlns="http://www.w3.org/2000/svg">
<g clip-path="url(#clip0_3272_4760)">
<path d="M16 7.11111L9.77778 0H0L12.4444 15.1111L22.6853 10.8889L16 7.11111Z" fill="#55ACEE"/>
<path d="M22.2222 0L16 7.11111L20.7911 13.6107L21.8818 12.2871L32 0H22.2222Z" fill="#3B88C3"/>
<path d="M20.6756 14.2453C20.7467 14.0525 20.792 13.8471 20.792 13.6293C20.792 13.1578 20.6047 12.7057 20.2713 12.3723C19.938 12.0389 19.4858 11.8516 19.0143 11.8516H13.088C12.6166 11.8516 12.1644 12.0389 11.831 12.3723C11.4976 12.7057 11.3103 13.1578 11.3103 13.6293C11.3103 13.8471 11.3547 14.0525 11.4267 14.2453C8.53071 15.8685 6.56982 18.9627 6.56982 22.5182C6.56982 27.7547 10.8143 32 16.0516 32C21.2889 32 25.5334 27.7547 25.5334 22.5182C25.5325 18.9627 23.5725 15.8685 20.6756 14.2453Z" fill="#FFAC33"/>
<path d="M16.0515 29.6294C19.9789 29.6294 23.1627 26.4457 23.1627 22.5183C23.1627 18.591 19.9789 15.4072 16.0515 15.4072C12.1242 15.4072 8.94043 18.591 8.94043 22.5183C8.94043 26.4457 12.1242 29.6294 16.0515 29.6294Z" fill="#FFD983"/>
<path d="M18.9139 27.2301C18.7845 27.2297 18.6583 27.189 18.5531 27.1136L16.0002 25.2834L13.4482 27.1136C13.3424 27.1896 13.2154 27.2303 13.0852 27.23C12.955 27.2297 12.8282 27.1884 12.7228 27.1119C12.6175 27.0355 12.5388 26.9278 12.4981 26.8041C12.4575 26.6804 12.4568 26.547 12.4962 26.423L13.4482 23.351L10.9193 21.5687C10.8147 21.4913 10.7371 21.383 10.6975 21.2592C10.6578 21.1353 10.6581 21.0021 10.6983 20.8783C10.7385 20.7546 10.8166 20.6467 10.9215 20.5697C11.0263 20.4928 11.1528 20.4508 11.2828 20.4496L14.4153 20.4452L15.4126 17.4496C15.4534 17.3258 15.5323 17.2179 15.6379 17.1415C15.7436 17.0651 15.8707 17.0239 16.0011 17.0239C16.1315 17.0239 16.2585 17.0651 16.3642 17.1415C16.4699 17.2179 16.5487 17.3258 16.5895 17.4496L17.5699 20.4452L20.7184 20.4496C20.8487 20.4502 20.9756 20.4919 21.0808 20.5688C21.1861 20.6457 21.2645 20.7538 21.3047 20.8777C21.345 21.0017 21.3452 21.1352 21.3052 21.2593C21.2652 21.3833 21.1871 21.4916 21.0819 21.5687L18.5522 23.351L19.5042 26.423C19.5341 26.5158 19.5415 26.6144 19.526 26.7107C19.5105 26.807 19.4724 26.8982 19.4148 26.977C19.3572 27.0557 19.2818 27.1197 19.1948 27.1637C19.1077 27.2077 19.0115 27.2304 18.9139 27.2301Z" fill="#FFAC33"/>
</g>
<defs>
<clipPath id="clip0_3272_4760">
<rect width="32" height="32" fill="white"/>
</clipPath>
</defs>
</svg>
