<svg width="24" height="24" viewBox="0 0 24 24" fill="none" xmlns="http://www.w3.org/2000/svg">
<path d="M13 13.5C15.8776 13.5 17.2133 14.4516 17.8496 15.2998C18.1763 15.7354 18.3396 16.1709 18.4209 16.4961C18.4615 16.6584 18.4816 16.7923 18.4912 16.8818C18.496 16.9263 18.498 16.9601 18.499 16.9805C18.4995 16.9905 18.4999 16.9976 18.5 17.001V18.5H7.5V17.001C7.50008 16.9976 7.50048 16.9905 7.50098 16.9805C7.502 16.9601 7.50403 16.9263 7.50879 16.8818C7.51838 16.7923 7.53852 16.6584 7.5791 16.4961C7.66042 16.1709 7.82372 15.7354 8.15039 15.2998C8.78667 14.4516 10.1224 13.5 13 13.5ZM4.5 7.5V10.5H7.5V11.5H4.5V14.5H3.5V11.5H0.5V10.5H3.5V7.5H4.5ZM12.5127 5.54785C12.9975 5.45151 13.5004 5.50127 13.957 5.69043C14.4137 5.87967 14.8045 6.2003 15.0791 6.61133C15.3536 7.02237 15.5 7.5057 15.5 8C15.5 8.66304 15.2364 9.29874 14.7676 9.76758C14.2987 10.2364 13.663 10.5 13 10.5C12.5057 10.5 12.0224 10.3536 11.6113 10.0791C11.2003 9.80446 10.8797 9.41371 10.6904 8.95703C10.5013 8.50035 10.4515 7.99751 10.5479 7.5127C10.6443 7.02774 10.8828 6.58205 11.2324 6.23242C11.5821 5.88279 12.0277 5.64431 12.5127 5.54785ZM18 5.5C18.663 5.5 19.2987 5.76358 19.7676 6.23242C20.2364 6.70126 20.5 7.33696 20.5 8C20.5 8.66304 20.2364 9.29874 19.7676 9.76758C19.2987 10.2364 18.663 10.5 18 10.5C17.9693 10.5 17.9388 10.4973 17.9082 10.4961C18.3006 9.72597 18.5088 8.87141 18.5088 8C18.5088 7.1283 18.3008 6.27326 17.9082 5.50293C17.9388 5.50176 17.9694 5.5 18 5.5ZM21.5 16.9844C21.4746 16.1748 21.2877 15.3784 20.9512 14.6416C20.818 14.3502 20.6616 14.0704 20.4854 13.8047C21.8564 14.1892 22.5844 14.8765 22.9805 15.4863C23.2417 15.8886 23.3726 16.2771 23.4375 16.5635C23.4698 16.7062 23.4856 16.8222 23.4932 16.8994C23.497 16.9379 23.4982 16.9671 23.499 16.9844C23.4994 16.9926 23.4999 16.9982 23.5 17.001V18.5H21.5V16.9844Z" stroke="black"/>
</svg>
