<svg width="30" height="30" viewBox="0 0 30 30" fill="none" xmlns="http://www.w3.org/2000/svg">
<circle cx="15" cy="15" r="15" fill="#FBF8C4"/>
<path d="M15.5 5.5C20.4707 5.5 24.5 9.5293 24.5 14.5C24.5 19.4707 20.4707 23.5 15.5 23.5C10.5293 23.5 6.5 19.4707 6.5 14.5C6.5 9.5293 10.5293 5.5 15.5 5.5ZM15.5 7.3C13.5904 7.3 11.7591 8.05857 10.4088 9.40883C9.05857 10.7591 8.3 12.5904 8.3 14.5C8.3 16.4096 9.05857 18.2409 10.4088 19.5912C11.7591 20.9414 13.5904 21.7 15.5 21.7C17.4096 21.7 19.2409 20.9414 20.5912 19.5912C21.9414 18.2409 22.7 16.4096 22.7 14.5C22.7 12.5904 21.9414 10.7591 20.5912 9.40883C19.2409 8.05857 17.4096 7.3 15.5 7.3ZM15.5 9.1C15.7204 9.10003 15.9332 9.18096 16.0979 9.32744C16.2627 9.47393 16.3679 9.67577 16.3937 9.8947L16.4 10V14.1274L18.8363 16.5637C18.9977 16.7257 19.0914 16.943 19.0984 17.1715C19.1054 17.4001 19.0251 17.6227 18.8739 17.7943C18.7226 17.9658 18.5118 18.0733 18.2842 18.095C18.0565 18.1166 17.8292 18.0509 17.6483 17.911L17.5637 17.8363L14.8637 15.1363C14.7238 14.9963 14.634 14.8141 14.6081 14.6179L14.6 14.5V10C14.6 9.7613 14.6948 9.53239 14.8636 9.3636C15.0324 9.19482 15.2613 9.1 15.5 9.1Z" fill="#E7C905"/>
</svg>
