<svg width="30" height="30" viewBox="0 0 30 30" fill="none" xmlns="http://www.w3.org/2000/svg">
<circle cx="15" cy="15" r="15" fill="#FFEFD4"/>
<path d="M15.9449 23.9436L15.9366 23.9451L15.8834 23.9713L15.8684 23.9743L15.8579 23.9713L15.8046 23.9451C15.7966 23.9426 15.7906 23.9438 15.7866 23.9488L15.7836 23.9563L15.7709 24.2773L15.7746 24.2923L15.7821 24.3021L15.8601 24.3576L15.8714 24.3606L15.8804 24.3576L15.9584 24.3021L15.9674 24.2901L15.9704 24.2773L15.9576 23.9571C15.9556 23.9491 15.9514 23.9446 15.9449 23.9436ZM16.1436 23.8588L16.1339 23.8603L15.9951 23.9301L15.9876 23.9376L15.9854 23.9458L15.9989 24.2683L16.0026 24.2773L16.0086 24.2826L16.1594 24.3523C16.1689 24.3548 16.1761 24.3528 16.1811 24.3463L16.1841 24.3358L16.1586 23.8753C16.1561 23.8663 16.1511 23.8608 16.1436 23.8588ZM15.6074 23.8603C15.6041 23.8583 15.6001 23.8577 15.5964 23.8585C15.5926 23.8594 15.5893 23.8616 15.5871 23.8648L15.5826 23.8753L15.5571 24.3358C15.5576 24.3448 15.5619 24.3508 15.5699 24.3538L15.5811 24.3523L15.7319 24.2826L15.7394 24.2766L15.7424 24.2683L15.7551 23.9458L15.7529 23.9368L15.7454 23.9293L15.6074 23.8603Z" fill="#E7C905"/>
<path d="M15 7.5C19.9707 7.5 24 11.0816 24 15.5C24 19.9184 19.9707 23.5 15 23.5C10.0293 23.5 6 19.9184 6 15.5C6 11.0816 10.0293 7.5 15 7.5ZM15 9.1C13.0904 9.1 11.2591 9.77428 9.90883 10.9745C8.55857 12.1747 7.8 13.8026 7.8 15.5C7.8 17.1974 8.55857 18.8253 9.90883 20.0255C11.2591 21.2257 13.0904 21.9 15 21.9C16.9096 21.9 18.7409 21.2257 20.0912 20.0255C21.4414 18.8253 22.2 17.1974 22.2 15.5C22.2 13.8026 21.4414 12.1747 20.0912 10.9745C18.7409 9.77428 16.9096 9.1 15 9.1ZM15 10.7C15.2204 10.7 15.4332 10.772 15.5979 10.9022C15.7627 11.0324 15.8679 11.2118 15.8937 11.4064L15.9 11.5V15.1688L18.3363 17.3344C18.4977 17.4784 18.5914 17.6715 18.5984 17.8747C18.6054 18.0779 18.5251 18.2758 18.3739 18.4282C18.2226 18.5807 18.0118 18.6762 17.7842 18.6955C17.5565 18.7148 17.3292 18.6563 17.1483 18.532L17.0637 18.4656L14.3637 16.0656C14.2238 15.9412 14.134 15.7792 14.1081 15.6048L14.1 15.5V11.5C14.1 11.2878 14.1948 11.0843 14.3636 10.9343C14.5324 10.7843 14.7613 10.7 15 10.7Z" fill="#E7C905"/>
</svg>
