<svg width="25" height="25" viewBox="0 0 25 25" fill="none" xmlns="http://www.w3.org/2000/svg">
<path d="M10.8972 0.926468C10.7345 0.817737 10.5649 0.722377 10.3899 0.641139C8.16885 -0.319651 6.12358 1.06255 5.22262 3.50101L0.333435 16.6399" stroke="black" stroke-width="0.666667" stroke-linecap="round" stroke-linejoin="round"/>
<path d="M5.84052 16.5697L9.39295 7.04798C9.52165 6.69973 9.52162 6.30846 9.39288 5.96024C9.26414 5.61201 9.01722 5.33536 8.70646 5.19115C8.3957 5.04693 8.04653 5.04696 7.73579 5.19123C7.42504 5.3355 7.17817 5.61219 7.04947 5.96044L1.69463 20.3586C1.44427 21.0645 1.44931 21.8519 1.70868 22.5537C1.96806 23.2555 2.46134 23.8164 3.08378 24.1172C3.70548 24.4023 4.40237 24.4015 5.02354 24.115C5.64472 23.8284 6.14018 23.2792 6.40264 22.5863L12.2114 6.81533C12.6425 5.70843 12.7375 4.47353 12.4817 3.30029M12.5963 9.51497L16.8905 21.0916C17.792 23.5301 19.898 25.0237 22.074 24.0141C24.2515 22.9337 24.8253 20.3355 23.9239 17.8971L19.0905 4.73242" stroke="black" stroke-width="0.666667" stroke-linecap="round" stroke-linejoin="round"/>
<path d="M15.2405 9.14566L18.7366 18.6932C18.8653 19.0414 19.1122 19.3181 19.4229 19.4624C19.7337 19.6067 20.0828 19.6067 20.3936 19.4625C20.7044 19.3183 20.9513 19.0416 21.08 18.6934C21.2088 18.3452 21.2088 17.9539 21.0801 17.6057L15.7806 3.18119C15.5121 2.48394 15.0118 1.93137 14.3858 1.64073C13.7597 1.35009 13.0572 1.34427 12.4274 1.6245C11.8079 1.91555 11.3156 2.46837 11.0571 3.16324C10.7987 3.85811 10.7949 4.63909 11.0466 5.33707L11.2278 5.82542" stroke="black" stroke-width="0.666667" stroke-linecap="round" stroke-linejoin="round"/>
</svg>
