<svg width="24" height="24" viewBox="0 0 24 24" fill="none" xmlns="http://www.w3.org/2000/svg">
<path d="M11.9909 3.24023C9.85022 3.24023 8.10889 4.98157 8.10889 7.12223C8.10889 9.2629 9.85022 11.0036 11.9909 11.0036C14.1312 11.0036 15.8729 9.26223 15.8729 7.1219C15.8729 4.98157 14.1312 3.24023 11.9909 3.24023Z" fill="#EA5A47"/>
<path d="M13.0562 10.7942C13.6315 10.5788 14.1525 10.5218 14.6608 10.0568C15.3615 9.41582 15.9622 8.27682 15.9622 7.38216C15.9622 6.56716 15.7695 5.61449 15.1815 4.83782C14.6388 4.12116 13.7278 3.55716 13.0562 3.31982C13.0562 3.31982 14.2285 5.20316 14.2285 7.11082C14.2285 9.01849 13.0562 10.7942 13.0562 10.7942Z" fill="#D22F27"/>
<path d="M11.9455 21.1629L12.8945 18.6062C12.8945 18.6062 12.6195 12.0805 12.7679 12.0469H11.0452C11.1939 12.0802 10.9702 18.5665 10.9702 18.5665L11.9455 21.1629Z" fill="#D0CFCE"/>
<path d="M11.9851 20.9124L12.8681 18.5531C12.8681 18.5531 12.9028 12.2008 12.8888 12.0444L11.9111 12.0468L11.9851 20.9124Z" fill="#9B9B9A"/>
<path d="M11.9902 11.058C14.164 11.058 15.9262 9.29583 15.9262 7.12203C15.9262 4.94824 14.164 3.18604 11.9902 3.18604C9.81641 3.18604 8.0542 4.94824 8.0542 7.12203C8.0542 9.29583 9.81641 11.058 11.9902 11.058Z" stroke="black" stroke-width="0.5" stroke-miterlimit="10" stroke-linecap="round" stroke-linejoin="round"/>
<path d="M12.84 12.3662V18.5715L11.9786 21.4065L10.9736 18.5715V12.3662" stroke="black" stroke-width="0.5" stroke-miterlimit="10" stroke-linecap="round" stroke-linejoin="round"/>
</svg>
