<svg width="26" height="26" viewBox="0 0 26 26" fill="none" xmlns="http://www.w3.org/2000/svg">
<path d="M15.75 18.75V21.75C15.75 22.5456 15.4866 23.3087 15.0178 23.8713C14.5489 24.4339 13.913 24.75 13.25 24.75H3.25C2.58696 24.75 1.95107 24.4339 1.48223 23.8713C1.01339 23.3087 0.75 22.5456 0.75 21.75V3.75C0.75 2.95435 1.01339 2.19129 1.48223 1.62868C1.95107 1.06607 2.58696 0.75 3.25 0.75H12.75C14.1306 0.75 15.75 2.09325 15.75 3.75V6.75M19.75 18.75L24.75 12.75L19.75 6.75M7.75 12.75H23.75" stroke="#FF0000" stroke-width="1.5" stroke-linecap="round" stroke-linejoin="round"/>
</svg>
