<svg width="30" height="30" viewBox="0 0 30 30" fill="none" xmlns="http://www.w3.org/2000/svg">
<circle cx="15" cy="15" r="15" fill="#CCFBF1"/>
<path fill-rule="evenodd" clip-rule="evenodd" d="M15 11.0625C15.3094 11.0625 15.6062 10.9703 15.825 10.8062C16.0437 10.6421 16.1667 10.4196 16.1667 10.1875C16.1667 9.95544 16.0437 9.73288 15.825 9.56878C15.6062 9.40469 15.3094 9.3125 15 9.3125C14.6906 9.3125 14.3938 9.40469 14.175 9.56878C13.9562 9.73288 13.8333 9.95544 13.8333 10.1875C13.8333 10.4196 13.9562 10.6421 14.175 10.8062C14.3938 10.9703 14.6906 11.0625 15 11.0625ZM15 8C15.6724 7.9999 16.3242 8.17403 16.845 8.49293C17.3659 8.81183 17.7239 9.2559 17.8583 9.75H20.8333C21.1428 9.75 21.4395 9.84219 21.6583 10.0063C21.8771 10.1704 22 10.3929 22 10.625V21.125C22 21.3571 21.8771 21.5796 21.6583 21.7437C21.4395 21.9078 21.1428 22 20.8333 22H9.16667C8.85725 22 8.5605 21.9078 8.34171 21.7437C8.12292 21.5796 8 21.3571 8 21.125V10.625C8 10.3929 8.12292 10.1704 8.34171 10.0063C8.5605 9.84219 8.85725 9.75 9.16667 9.75H12.1417C12.2761 9.2559 12.6341 8.81183 13.155 8.49293C13.6758 8.17403 14.3276 7.9999 15 8ZM13.8333 12.375H17.9167V11.0625H20.25V20.6875H9.75V11.0625H12.0833V12.375H13.8333ZM17.9517 15.245C18.0376 15.1849 18.1066 15.1125 18.1544 15.032C18.2022 14.9515 18.228 14.8646 18.23 14.7765C18.2321 14.6883 18.2105 14.6008 18.1665 14.5191C18.1225 14.4374 18.057 14.3632 17.9739 14.3008C17.8908 14.2385 17.7918 14.1894 17.6829 14.1564C17.5739 14.1234 17.4572 14.1072 17.3397 14.1087C17.2222 14.1103 17.1064 14.1296 16.999 14.1654C16.8917 14.2013 16.7951 14.253 16.715 14.3175L14.4167 16.0412L13.8683 15.63C13.7025 15.5141 13.4831 15.451 13.2564 15.454C13.0297 15.457 12.8134 15.5258 12.6531 15.6461C12.4928 15.7663 12.401 15.9285 12.397 16.0985C12.393 16.2686 12.4771 16.4331 12.6317 16.5575L13.7983 17.4325C13.9624 17.5554 14.1848 17.6244 14.4167 17.6244C14.6485 17.6244 14.8709 17.5554 15.035 17.4325L17.9517 15.245Z" fill="#0F766E"/>
</svg>
