<svg width="30" height="30" viewBox="0 0 30 30" fill="none" xmlns="http://www.w3.org/2000/svg">
<circle cx="15" cy="15" r="15" fill="#FFEDD5"/>
<path d="M15 22C13.9359 21.2215 12.7288 20.8117 11.5 20.8117C10.2712 20.8117 9.06413 21.2215 8 22V9.18831C9.06413 8.40983 10.2712 8 11.5 8C12.7288 8 13.9359 8.40983 15 9.18831M15 22C16.0641 21.2215 17.2712 20.8117 18.5 20.8117C19.7288 20.8117 20.9359 21.2215 22 22V9.18831C20.9359 8.40983 19.7288 8 18.5 8C17.2712 8 16.0641 8.40983 15 9.18831M15 22V9.18831" stroke="#F97316" stroke-width="1.3" stroke-linecap="round" stroke-linejoin="round"/>
</svg>
