<svg width="30" height="30" viewBox="0 0 30 30" fill="none" xmlns="http://www.w3.org/2000/svg">
<circle cx="15" cy="15" r="15" fill="#F3E8FF"/>
<path d="M20.9574 8.09804H19.0213V7.41176C19.0213 7.30256 18.9742 7.19782 18.8904 7.1206C18.8066 7.04338 18.693 7 18.5745 7C18.456 7 18.3423 7.04338 18.2585 7.1206C18.1747 7.19782 18.1277 7.30256 18.1277 7.41176V8.09804H11.8723V7.41176C11.8723 7.30256 11.8253 7.19782 11.7415 7.1206C11.6577 7.04338 11.544 7 11.4255 7C11.307 7 11.1934 7.04338 11.1096 7.1206C11.0258 7.19782 10.9787 7.30256 10.9787 7.41176V8.09804H9.04255C8.76605 8.09804 8.50087 8.19926 8.30536 8.37945C8.10984 8.55963 8 8.80401 8 9.05882V20.0392C8 20.294 8.10984 20.5384 8.30536 20.7186C8.50087 20.8988 8.76605 21 9.04255 21H20.9574C21.2339 21 21.4991 20.8988 21.6946 20.7186C21.8902 20.5384 22 20.294 22 20.0392V9.05882C22 8.80401 21.8902 8.55963 21.6946 8.37945C21.4991 8.19926 21.2339 8.09804 20.9574 8.09804ZM9.04255 8.92157H10.9787V9.60784C10.9787 9.71705 11.0258 9.82178 11.1096 9.899C11.1934 9.97623 11.307 10.0196 11.4255 10.0196C11.544 10.0196 11.6577 9.97623 11.7415 9.899C11.8253 9.82178 11.8723 9.71705 11.8723 9.60784V8.92157H18.1277V9.60784C18.1277 9.71705 18.1747 9.82178 18.2585 9.899C18.3423 9.97623 18.456 10.0196 18.5745 10.0196C18.693 10.0196 18.8066 9.97623 18.8904 9.899C18.9742 9.82178 19.0213 9.71705 19.0213 9.60784V8.92157H20.9574C20.9969 8.92157 21.0348 8.93603 21.0628 8.96177C21.0907 8.98751 21.1064 9.02242 21.1064 9.05882V11.3922H8.89362V9.05882C8.89362 9.02242 8.90931 8.98751 8.93724 8.96177C8.96517 8.93603 9.00305 8.92157 9.04255 8.92157ZM20.9574 20.1765H9.04255C9.00305 20.1765 8.96517 20.162 8.93724 20.1363C8.90931 20.1105 8.89362 20.0756 8.89362 20.0392V12.2157H21.1064V20.0392C21.1064 20.0756 21.0907 20.1105 21.0628 20.1363C21.0348 20.162 20.9969 20.1765 20.9574 20.1765ZM13.6596 14V18.3922C13.6596 18.5014 13.6125 18.6061 13.5287 18.6833C13.4449 18.7605 13.3313 18.8039 13.2128 18.8039C13.0943 18.8039 12.9806 18.7605 12.8968 18.6833C12.813 18.6061 12.766 18.5014 12.766 18.3922V14.6664L12.2209 14.9175C12.1683 14.9417 12.1112 14.9561 12.0526 14.9599C11.9941 14.9637 11.9353 14.9568 11.8796 14.9397C11.824 14.9225 11.7725 14.8954 11.7282 14.86C11.6839 14.8245 11.6476 14.7813 11.6214 14.7329C11.5952 14.6845 11.5796 14.6319 11.5754 14.5779C11.5713 14.524 11.5788 14.4698 11.5974 14.4185C11.616 14.3672 11.6454 14.3198 11.6839 14.2789C11.7223 14.2381 11.7692 14.2046 11.8217 14.1805L13.0132 13.6315C13.0813 13.6001 13.157 13.5853 13.2331 13.5885C13.3092 13.5917 13.3831 13.6128 13.4478 13.6497C13.5126 13.6866 13.566 13.7382 13.6031 13.7995C13.6402 13.8608 13.6596 13.9298 13.6596 14ZM18.0956 16.0074L16.4894 17.9804H17.9787C18.0972 17.9804 18.2109 18.0238 18.2947 18.101C18.3785 18.1782 18.4255 18.283 18.4255 18.3922C18.4255 18.5014 18.3785 18.6061 18.2947 18.6833C18.2109 18.7605 18.0972 18.8039 17.9787 18.8039H15.5957C15.5128 18.8039 15.4314 18.7826 15.3608 18.7424C15.2903 18.7022 15.2332 18.6447 15.1961 18.5763C15.159 18.5079 15.1433 18.4313 15.1507 18.3552C15.1582 18.279 15.1885 18.2063 15.2383 18.1451L17.383 15.5098C17.4447 15.435 17.4892 15.3493 17.5135 15.2581C17.5379 15.1668 17.5416 15.0719 17.5246 14.9793C17.5075 14.8866 17.47 14.7982 17.4143 14.7195C17.3586 14.6407 17.286 14.5734 17.2009 14.5216C17.1158 14.4698 17.0201 14.4346 16.9197 14.4183C16.8192 14.402 16.7162 14.4049 16.6171 14.4268C16.5179 14.4486 16.4246 14.489 16.3431 14.5455C16.2616 14.6019 16.1935 14.6732 16.1431 14.7549C16.1164 14.8061 16.0786 14.8517 16.0319 14.8887C15.9852 14.9258 15.9308 14.9536 15.8719 14.9703C15.813 14.987 15.751 14.9924 15.6898 14.986C15.6286 14.9796 15.5694 14.9615 15.5161 14.9331C15.4628 14.9046 15.4165 14.8663 15.38 14.8205C15.3436 14.7747 15.3178 14.7225 15.3043 14.6671C15.2908 14.6117 15.2898 14.5543 15.3016 14.4985C15.3133 14.4428 15.3374 14.3899 15.3723 14.3431C15.4846 14.1655 15.6351 14.0108 15.8146 13.8887C15.994 13.7665 16.1986 13.6794 16.4159 13.6327C16.6331 13.586 16.8585 13.5807 17.078 13.6171C17.2976 13.6535 17.5068 13.7309 17.6928 13.8444C17.8788 13.958 18.0376 14.1053 18.1596 14.2774C18.2816 14.4496 18.3642 14.6429 18.4023 14.8454C18.4403 15.048 18.4331 15.2556 18.381 15.4555C18.3289 15.6555 18.2331 15.8435 18.0994 16.008L18.0956 16.0074Z" fill="#A855F7"/>
</svg>
