<svg width="24" height="24" viewBox="0 0 24 24" fill="none" xmlns="http://www.w3.org/2000/svg">
<path d="M16.6291 13.891L17.0851 13.438L16.0261 12.374L15.5721 12.827L16.6291 13.891ZM18.6141 13.248L20.5251 14.287L21.2401 12.969L19.3301 11.931L18.6141 13.248ZM20.8921 16.351L19.4721 17.764L20.5291 18.827L21.9491 17.415L20.8921 16.351ZM18.6061 18.218C17.1561 18.354 13.4061 18.233 9.34405 14.195L8.28605 15.258C12.7181 19.665 16.9371 19.881 18.7461 19.712L18.6061 18.218ZM9.34405 14.195C5.47305 10.345 4.83105 7.10796 4.75105 5.70296L3.25305 5.78796C3.35305 7.55596 4.14805 11.144 8.28605 15.258L9.34405 14.195ZM10.7191 8.01496L11.0061 7.72896L9.95005 6.66596L9.66305 6.95096L10.7191 8.01496ZM11.2341 4.09396L9.97405 2.40996L8.77305 3.30996L10.0331 4.99296L11.2341 4.09396ZM5.73305 2.04296L4.16305 3.60296L5.22105 4.66696L6.79005 3.10696L5.73305 2.04296ZM10.1911 7.48296C9.66105 6.95096 9.66105 6.95096 9.66105 6.95296H9.65905L9.65605 6.95696C9.60853 7.00487 9.56598 7.05748 9.52905 7.11396C9.47505 7.19396 9.41605 7.29896 9.36605 7.43196C9.24433 7.77529 9.214 8.14437 9.27805 8.50296C9.41205 9.36796 10.0081 10.511 11.5341 12.029L12.5921 10.965C11.1631 9.54496 10.8231 8.68096 10.7601 8.27296C10.7301 8.07896 10.7611 7.98296 10.7701 7.96096C10.7761 7.94763 10.7761 7.94563 10.7701 7.95496C10.7611 7.96876 10.7511 7.9818 10.7401 7.99396L10.7301 8.00396L10.7201 8.01296L10.1911 7.48296ZM11.5341 12.029C13.0611 13.547 14.2101 14.139 15.0761 14.271C15.5191 14.339 15.8761 14.285 16.1471 14.184C16.2989 14.1284 16.4407 14.0487 16.5671 13.948L16.6171 13.903L16.6241 13.897L16.6271 13.894L16.6281 13.892C16.6281 13.892 16.6291 13.891 16.1001 13.359C15.5701 12.827 15.5731 12.826 15.5731 12.826L15.5751 12.824L15.5771 12.822L15.5831 12.817L15.5931 12.807L15.6311 12.777C15.6404 12.771 15.6381 12.7716 15.6241 12.779C15.5991 12.788 15.5011 12.819 15.3041 12.789C14.8901 12.725 14.0201 12.385 12.5921 10.965L11.5341 12.029ZM9.97405 2.40896C8.95405 1.04896 6.95005 0.83296 5.73305 2.04296L6.79005 3.10696C7.32205 2.57796 8.26605 2.63296 8.77305 3.30996L9.97405 2.40896ZM4.75205 5.70396C4.73205 5.35796 4.89105 4.99596 5.22105 4.66796L4.16205 3.60396C3.62505 4.13796 3.20205 4.89396 3.25305 5.78796L4.75205 5.70396ZM19.4721 17.764C19.1981 18.038 18.9021 18.192 18.6071 18.219L18.7461 19.712C19.4811 19.643 20.0821 19.273 20.5301 18.828L19.4721 17.764ZM11.0061 7.72896C11.9911 6.74996 12.0641 5.20296 11.2351 4.09496L10.0341 4.99396C10.4371 5.53296 10.3771 6.23996 9.94905 6.66696L11.0061 7.72896ZM20.5261 14.288C21.3431 14.732 21.4701 15.778 20.8931 16.352L21.9511 17.415C23.2911 16.082 22.878 13.859 21.2411 12.97L20.5261 14.288ZM17.0851 13.439C17.4691 13.057 18.0871 12.963 18.6151 13.249L19.3311 11.932C18.2471 11.342 16.9031 11.505 16.0271 12.375L17.0851 13.439Z" fill="black"/>
</svg>
