<svg width="24" height="24" viewBox="0 0 24 24" fill="none" xmlns="http://www.w3.org/2000/svg">
<path d="M11.6202 12.78C11.5502 12.77 11.4602 12.77 11.3802 12.78C9.62021 12.72 8.22021 11.28 8.22021 9.50998C8.22021 7.69998 9.68021 6.22998 11.5002 6.22998C13.3102 6.22998 14.7802 7.69998 14.7802 9.50998C14.7702 11.28 13.3802 12.72 11.6202 12.78Z" stroke="black" stroke-width="1.2" stroke-linecap="round" stroke-linejoin="round"/>
<path d="M18.2398 19.3801C16.4598 21.0101 14.0998 22.0001 11.4998 22.0001C8.89977 22.0001 6.53977 21.0101 4.75977 19.3801C4.85977 18.4401 5.45977 17.5201 6.52977 16.8001C9.26977 14.9801 13.7498 14.9801 16.4698 16.8001C17.5398 17.5201 18.1398 18.4401 18.2398 19.3801Z" stroke="black" stroke-width="1.2" stroke-linecap="round" stroke-linejoin="round"/>
<path d="M11.5 22C17.0228 22 21.5 17.5228 21.5 12C21.5 6.47715 17.0228 2 11.5 2C5.97715 2 1.5 6.47715 1.5 12C1.5 17.5228 5.97715 22 11.5 22Z" stroke="black" stroke-width="1.2" stroke-linecap="round" stroke-linejoin="round"/>
</svg>
