<svg width="32" height="32" viewBox="0 0 32 32" fill="none" xmlns="http://www.w3.org/2000/svg">
<path d="M1.58252 16.5923V31.0223H30.5975V16.5373C30.5975 16.5373 24.7925 12.5323 24.525 12.4948C24.2575 12.4573 16.46 5.31982 16.46 5.31982L7.86502 12.2523L1.58252 16.5923Z" fill="#F8C778"/>
<path d="M1.58252 16.5773H8.43252L8.42502 31.0073H9.56252L9.57002 13.4398L16.29 7.52484L23.07 13.7248L23.0525 31.0073H24.1175L24.135 16.4948L30.5975 16.5398V15.6773L24.7025 12.5173L16.8175 5.58984L8.11252 12.3748L1.58752 15.7523L1.58252 16.5773Z" fill="#F5B03F"/>
<path d="M3.27512 10.6423C3.23012 10.7148 1.48762 15.5198 1.45512 15.6198C1.42262 15.7198 1.50512 15.8373 1.70512 15.8548C1.90512 15.8723 8.80262 15.8548 8.80262 15.8548L8.78262 12.9098C8.78262 12.9098 16.1876 6.24477 16.2701 6.24477C16.3526 6.24477 23.8151 13.0823 23.8326 13.1848C23.8501 13.2848 23.8651 15.7398 23.8651 15.7398C23.8651 15.7398 30.4276 15.7898 30.5626 15.8073C30.6976 15.8248 30.7301 15.6398 30.6126 15.2898C30.4951 14.9398 29.1251 10.7148 29.0251 10.6473C28.9251 10.5798 23.5151 10.5798 23.5151 10.5798C23.5151 10.5798 16.7376 4.33977 16.6201 4.23977C16.5026 4.13977 16.1526 3.98727 15.8426 4.29727C15.5701 4.56977 8.81012 10.6298 8.81012 10.6298C8.81012 10.6298 3.32512 10.5573 3.27512 10.6423Z" fill="#A62714"/>
<path d="M10.9776 20.1475L10.9751 31.0175H21.5651V20.1475C21.5651 20.1475 10.9776 20.12 10.9776 20.1475Z" fill="#CF6150"/>
<path d="M0.91017 31.0625C1.00267 31.2025 2.08267 31.1375 4.96017 31.1525C7.83767 31.1675 8.67517 31.1625 8.82517 31.1325C8.97267 31.1025 9.09267 30.455 8.99517 29.8925C8.88767 29.275 8.51767 28.6925 7.91767 28.505C7.11517 28.255 6.62017 28.485 6.23517 28.35C5.85017 28.2175 4.72267 27.6525 3.58017 27.7275C2.60017 27.79 1.90267 28.0775 1.29517 28.9725C0.64267 29.935 0.85017 30.9725 0.91017 31.0625ZM31.5227 31.0025C31.6702 30.9 31.6577 28.06 29.6827 27.8425C28.2002 27.68 27.8127 28.3175 27.5627 28.3175C27.3102 28.3175 26.3502 27.85 25.0252 28.3625C23.3777 29 23.4077 30.855 23.4677 31.0325C23.5277 31.21 25.2327 31.165 27.5752 31.18C29.9177 31.195 31.3302 31.1375 31.5227 31.0025Z" fill="#7DB240"/>
<path d="M2.89254 17.4077H7.56504V21.1702H2.83004C2.83004 21.1702 2.86004 17.4377 2.89254 17.4077ZM2.83004 22.9277H7.48254V26.5677H2.79004C2.79004 26.5702 2.81004 22.9077 2.83004 22.9277Z" fill="#3E737C"/>
<path d="M3.60002 18.0952H6.77502V20.5827H3.56002C3.56002 20.5827 3.53752 18.1152 3.60002 18.0952ZM3.45752 23.5352H6.81502V25.9427H3.45752V23.5352Z" fill="#A7D0D7"/>
<path d="M24.9175 17.6301H29.57V21.3726H24.8975C24.8975 21.3726 24.9175 17.5701 24.9175 17.6301Z" fill="#3E737C"/>
<path d="M25.5649 18.2773H28.9024V20.7048H25.5649V18.2773Z" fill="#A7D0D7"/>
<path d="M24.8576 23.1499H29.4901V26.6899H24.8576C24.8576 26.6899 24.8276 23.1824 24.8576 23.1499Z" fill="#3E737C"/>
<path d="M25.5852 23.7975V25.9825H28.7602V23.7775C28.7602 23.7775 25.5552 23.7675 25.5852 23.7975Z" fill="#A7D0D7"/>
<path d="M12.5152 31.0225L12.5127 21.3325H20.1377V31.0225H12.5152Z" fill="#3E737C"/>
<path d="M19.2351 23.3102V22.0352H13.4551V23.3102H19.2351ZM13.4551 23.9477H19.2351V27.2652H13.4551V23.9477ZM13.4551 27.9477H19.2351V29.6827H13.4551V27.9477Z" fill="#A7D0D7"/>
<path d="M16.0702 23.6623V30.1898H16.7302V23.5948C16.7302 23.5948 16.1152 23.6623 16.0702 23.6623ZM16.1152 10.0148C13.5227 10.0373 11.7852 11.9698 11.9177 14.4548C12.0452 16.8698 13.9627 18.3848 16.1802 18.3223C18.5102 18.2573 20.1802 16.3873 20.2452 14.1698C20.3102 11.9523 18.5102 9.9948 16.1152 10.0148Z" fill="#3E737C"/>
<path d="M16.0502 10.7627C13.9402 10.7627 12.5327 12.3677 12.6227 14.3002C12.7077 16.1652 13.9627 17.5752 16.1177 17.5752C18.0952 17.5752 19.3952 15.9502 19.4352 14.2777C19.4777 12.4527 18.1152 10.7627 16.0502 10.7627Z" fill="white"/>
<path d="M15.4348 14.3648C15.4348 14.3648 14.2098 15.3948 14.1423 15.5148C14.0748 15.6348 14.0773 15.8323 14.2398 15.9648C14.4048 16.0973 14.5673 16.0198 14.6673 15.9423C14.7648 15.8648 16.0573 14.8048 16.0573 14.8048C16.0573 14.8048 16.4748 14.7973 16.5723 14.3023C16.6498 13.9073 16.3648 13.7223 16.3648 13.7223C16.3648 13.7223 16.3198 11.3573 16.2998 11.1823C16.2823 11.0523 16.1473 10.9298 16.0273 10.9423C15.9073 10.9523 15.7873 11.0198 15.7748 11.2148C15.7623 11.4098 15.7498 13.6748 15.7498 13.6748C15.7498 13.6748 15.5748 13.7398 15.4773 13.9273C15.3798 14.1123 15.4348 14.3648 15.4348 14.3648Z" fill="#2F2F2F"/>
</svg>
