<svg width="24" height="24" viewBox="0 0 24 24" fill="none" xmlns="http://www.w3.org/2000/svg">
<g clip-path="url(#clip0_3272_6022)">
<path d="M13.3332 4.028C13.3332 4.76933 12.7312 5.37067 11.9998 5.37067C11.2685 5.37067 10.6665 4.76933 10.6665 4.028V1.34267C10.6665 0.600667 11.2685 0 11.9998 0C12.7312 0 13.3332 0.600667 13.3332 1.34267V4.028Z" fill="#FFCC4D"/>
<path d="M6.12008 24C5.97075 24 5.81875 23.9654 5.67608 23.894C5.43932 23.7723 5.25996 23.5624 5.17675 23.3095C5.09354 23.0567 5.11318 22.7812 5.23141 22.5427L11.1914 10.458C11.3594 10.1167 11.7034 9.90137 12.0801 9.90137C12.4567 9.90137 12.8007 10.1167 12.9687 10.458L18.9294 22.5427C19.0477 22.7811 19.0674 23.0565 18.9844 23.3094C18.9013 23.5622 18.7221 23.7722 18.4854 23.894C18.3685 23.953 18.2411 23.9882 18.1105 23.9975C17.9798 24.0067 17.8487 23.9899 17.7247 23.9479C17.6006 23.906 17.4862 23.8398 17.388 23.7531C17.2898 23.6665 17.2098 23.5612 17.1527 23.4434L12.0807 13.16L7.00941 23.4434C6.92791 23.6099 6.80141 23.7503 6.64424 23.8487C6.48707 23.9471 6.3055 23.9995 6.12008 24Z" fill="#FFAC33"/>
<path d="M12.0808 13.5949C11.905 13.5936 11.7368 13.5229 11.6128 13.3982L2.34146 3.99891C2.08279 3.73624 2.08279 3.31157 2.34146 3.04957C2.60013 2.78757 3.01946 2.78757 3.27746 3.04957L12.0808 11.9736L20.8828 3.04891C20.9439 2.98672 21.0168 2.93733 21.0972 2.90362C21.1776 2.8699 21.2639 2.85254 21.3511 2.85254C21.4383 2.85254 21.5246 2.8699 21.605 2.90362C21.6855 2.93733 21.7583 2.98672 21.8195 3.04891C21.9437 3.17565 22.0133 3.34607 22.0133 3.52357C22.0133 3.70107 21.9437 3.8715 21.8195 3.99824L12.5495 13.3982C12.4253 13.5231 12.2569 13.5938 12.0808 13.5949Z" fill="#58595B"/>
<path d="M22.6767 12.9232C22.6767 18.8552 17.9334 23.6638 12.0807 23.6638C6.22935 23.6638 1.48535 18.8552 1.48535 12.9232C1.48535 6.98982 6.22935 2.18115 12.0807 2.18115C17.9327 2.18049 22.6767 6.98982 22.6767 12.9232Z" fill="#DD2E44"/>
<path d="M20.0274 12.9234C20.0274 17.3727 16.4708 20.9794 12.0808 20.9794C7.6921 20.9794 4.13477 17.3727 4.13477 12.9234C4.13477 8.47337 7.6921 4.8667 12.0808 4.8667C16.4708 4.86603 20.0274 8.47337 20.0274 12.9234Z" fill="#E6E7E8"/>
<path d="M20.0267 0.837891C19.5035 0.837841 18.9855 0.94218 18.5031 1.1448C18.0207 1.34742 17.5836 1.64424 17.2173 2.01789L22.8367 7.71389C23.5849 6.95513 24.003 5.9315 24 4.86589C24 2.64189 22.2207 0.837891 20.0267 0.837891ZM3.97335 0.837891C4.49656 0.837841 5.01453 0.94218 5.49692 1.1448C5.97931 1.34742 6.41643 1.64424 6.78268 2.01789L1.16335 7.71389C0.415146 6.95513 -0.00298247 5.9315 1.60164e-05 4.86589C1.60164e-05 2.64189 1.77868 0.837891 3.97335 0.837891Z" fill="#FFCC4D"/>
<path d="M15.3335 13.3333H12.0002C11.8234 13.3333 11.6538 13.2631 11.5288 13.1381C11.4037 13.013 11.3335 12.8435 11.3335 12.6667V6.66667C11.3335 6.48986 11.4037 6.32029 11.5288 6.19526C11.6538 6.07024 11.8234 6 12.0002 6C12.177 6 12.3465 6.07024 12.4716 6.19526C12.5966 6.32029 12.6668 6.48986 12.6668 6.66667V12H15.3335C15.5103 12 15.6799 12.0702 15.8049 12.1953C15.9299 12.3203 16.0002 12.4899 16.0002 12.6667C16.0002 12.8435 15.9299 13.013 15.8049 13.1381C15.6799 13.2631 15.5103 13.3333 15.3335 13.3333Z" fill="#414042"/>
</g>
<defs>
<clipPath id="clip0_3272_6022">
<rect width="24" height="24" fill="white"/>
</clipPath>
</defs>
</svg>
