<svg width="30" height="30" viewBox="0 0 30 30" fill="none" xmlns="http://www.w3.org/2000/svg">
<rect width="30" height="30" rx="5" fill="#FF7B17"/>
<mask id="path-2-inside-1_3272_2969" fill="white">
<path d="M22.5002 6.1875H20.0627V5.25C20.0627 5.10082 20.0035 4.95774 19.898 4.85225C19.7925 4.74676 19.6494 4.6875 19.5002 4.6875C19.3511 4.6875 19.208 4.74676 19.1025 4.85225C18.997 4.95774 18.9377 5.10082 18.9377 5.25V6.1875H11.0627V5.25C11.0627 5.10082 11.0035 4.95774 10.898 4.85225C10.7925 4.74676 10.6494 4.6875 10.5002 4.6875C10.3511 4.6875 10.208 4.74676 10.1025 4.85225C9.99701 4.95774 9.93774 5.10082 9.93774 5.25V6.1875H7.50024C7.15215 6.1875 6.81831 6.32578 6.57217 6.57192C6.32603 6.81806 6.18774 7.1519 6.18774 7.5V22.5C6.18774 22.8481 6.32603 23.1819 6.57217 23.4281C6.81831 23.6742 7.15215 23.8125 7.50024 23.8125H22.5002C22.8483 23.8125 23.1822 23.6742 23.4283 23.4281C23.6745 23.1819 23.8127 22.8481 23.8127 22.5V7.5C23.8127 7.1519 23.6745 6.81806 23.4283 6.57192C23.1822 6.32578 22.8483 6.1875 22.5002 6.1875ZM7.50024 7.3125H9.93774V8.25C9.93774 8.39918 9.99701 8.54226 10.1025 8.64775C10.208 8.75324 10.3511 8.8125 10.5002 8.8125C10.6494 8.8125 10.7925 8.75324 10.898 8.64775C11.0035 8.54226 11.0627 8.39918 11.0627 8.25V7.3125H18.9377V8.25C18.9377 8.39918 18.997 8.54226 19.1025 8.64775C19.208 8.75324 19.3511 8.8125 19.5002 8.8125C19.6494 8.8125 19.7925 8.75324 19.898 8.64775C20.0035 8.54226 20.0627 8.39918 20.0627 8.25V7.3125H22.5002C22.55 7.3125 22.5977 7.33225 22.6328 7.36742C22.668 7.40258 22.6877 7.45027 22.6877 7.5V10.6875H7.31274V7.5C7.31274 7.45027 7.3325 7.40258 7.36766 7.36742C7.40282 7.33225 7.45052 7.3125 7.50024 7.3125ZM22.5002 22.6875H7.50024C7.45052 22.6875 7.40282 22.6677 7.36766 22.6326C7.3325 22.5974 7.31274 22.5497 7.31274 22.5V11.8125H22.6877V22.5C22.6877 22.5497 22.668 22.5974 22.6328 22.6326C22.5977 22.6677 22.55 22.6875 22.5002 22.6875ZM13.3127 14.25V20.25C13.3127 20.3992 13.2535 20.5423 13.148 20.6477C13.0425 20.7532 12.8994 20.8125 12.7502 20.8125C12.6011 20.8125 12.458 20.7532 12.3525 20.6477C12.247 20.5423 12.1877 20.3992 12.1877 20.25V15.1603L11.5015 15.5034C11.4354 15.5364 11.3634 15.5561 11.2897 15.5613C11.216 15.5664 11.142 15.5571 11.0719 15.5336C11.0018 15.5102 10.9371 15.4732 10.8813 15.4248C10.8255 15.3763 10.7798 15.3174 10.7468 15.2512C10.7138 15.1851 10.6942 15.1132 10.689 15.0395C10.6838 14.9658 10.6932 14.8918 10.7166 14.8217C10.74 14.7516 10.777 14.6868 10.8255 14.631C10.8739 14.5753 10.9329 14.5296 10.999 14.4966L12.499 13.7466C12.5848 13.7037 12.6801 13.6836 12.7758 13.6879C12.8716 13.6923 12.9647 13.721 13.0462 13.7715C13.1277 13.8219 13.195 13.8923 13.2416 13.9761C13.2883 14.0598 13.3128 14.1541 13.3127 14.25ZM18.8974 16.9922L16.8752 19.6875H18.7502C18.8994 19.6875 19.0425 19.7468 19.148 19.8523C19.2535 19.9577 19.3127 20.1008 19.3127 20.25C19.3127 20.3992 19.2535 20.5423 19.148 20.6477C19.0425 20.7532 18.8994 20.8125 18.7502 20.8125H15.7502C15.6458 20.8125 15.5434 20.7834 15.4545 20.7285C15.3657 20.6736 15.2938 20.595 15.2471 20.5016C15.2004 20.4081 15.1806 20.3035 15.19 20.1995C15.1994 20.0954 15.2376 19.9961 15.3002 19.9125L18.0002 16.3125C18.078 16.2103 18.1339 16.0933 18.1646 15.9686C18.1953 15.844 18.2 15.7143 18.1785 15.5878C18.157 15.4612 18.1097 15.3404 18.0396 15.2329C17.9696 15.1253 17.8781 15.0333 17.771 14.9625C17.6639 14.8918 17.5434 14.8437 17.4169 14.8215C17.2905 14.7992 17.1609 14.8031 17.036 14.833C16.9112 14.8629 16.7938 14.9181 16.6911 14.9952C16.5885 15.0723 16.5028 15.1697 16.4393 15.2812C16.4058 15.3512 16.3581 15.4134 16.2994 15.4641C16.2406 15.5147 16.172 15.5527 16.0979 15.5755C16.0238 15.5984 15.9457 15.6056 15.8686 15.5969C15.7916 15.5881 15.7171 15.5635 15.65 15.5246C15.5829 15.4857 15.5246 15.4334 15.4787 15.3708C15.4328 15.3083 15.4003 15.237 15.3833 15.1613C15.3663 15.0856 15.3651 15.0072 15.3799 14.9311C15.3946 14.8549 15.425 14.7826 15.469 14.7188C15.6104 14.4761 15.7998 14.2648 16.0257 14.0979C16.2516 13.931 16.5092 13.8121 16.7827 13.7483C17.0563 13.6845 17.3399 13.6772 17.6164 13.7269C17.8928 13.7767 18.1561 13.8823 18.3903 14.0374C18.6244 14.1926 18.8244 14.3939 18.978 14.629C19.1316 14.8642 19.2355 15.1282 19.2834 15.4049C19.3314 15.6817 19.3223 15.9653 19.2567 16.2384C19.1911 16.5115 19.0705 16.7683 18.9021 16.9931L18.8974 16.9922Z"/>
</mask>
<path d="M22.5002 6.1875H20.0627V5.25C20.0627 5.10082 20.0035 4.95774 19.898 4.85225C19.7925 4.74676 19.6494 4.6875 19.5002 4.6875C19.3511 4.6875 19.208 4.74676 19.1025 4.85225C18.997 4.95774 18.9377 5.10082 18.9377 5.25V6.1875H11.0627V5.25C11.0627 5.10082 11.0035 4.95774 10.898 4.85225C10.7925 4.74676 10.6494 4.6875 10.5002 4.6875C10.3511 4.6875 10.208 4.74676 10.1025 4.85225C9.99701 4.95774 9.93774 5.10082 9.93774 5.25V6.1875H7.50024C7.15215 6.1875 6.81831 6.32578 6.57217 6.57192C6.32603 6.81806 6.18774 7.1519 6.18774 7.5V22.5C6.18774 22.8481 6.32603 23.1819 6.57217 23.4281C6.81831 23.6742 7.15215 23.8125 7.50024 23.8125H22.5002C22.8483 23.8125 23.1822 23.6742 23.4283 23.4281C23.6745 23.1819 23.8127 22.8481 23.8127 22.5V7.5C23.8127 7.1519 23.6745 6.81806 23.4283 6.57192C23.1822 6.32578 22.8483 6.1875 22.5002 6.1875ZM7.50024 7.3125H9.93774V8.25C9.93774 8.39918 9.99701 8.54226 10.1025 8.64775C10.208 8.75324 10.3511 8.8125 10.5002 8.8125C10.6494 8.8125 10.7925 8.75324 10.898 8.64775C11.0035 8.54226 11.0627 8.39918 11.0627 8.25V7.3125H18.9377V8.25C18.9377 8.39918 18.997 8.54226 19.1025 8.64775C19.208 8.75324 19.3511 8.8125 19.5002 8.8125C19.6494 8.8125 19.7925 8.75324 19.898 8.64775C20.0035 8.54226 20.0627 8.39918 20.0627 8.25V7.3125H22.5002C22.55 7.3125 22.5977 7.33225 22.6328 7.36742C22.668 7.40258 22.6877 7.45027 22.6877 7.5V10.6875H7.31274V7.5C7.31274 7.45027 7.3325 7.40258 7.36766 7.36742C7.40282 7.33225 7.45052 7.3125 7.50024 7.3125ZM22.5002 22.6875H7.50024C7.45052 22.6875 7.40282 22.6677 7.36766 22.6326C7.3325 22.5974 7.31274 22.5497 7.31274 22.5V11.8125H22.6877V22.5C22.6877 22.5497 22.668 22.5974 22.6328 22.6326C22.5977 22.6677 22.55 22.6875 22.5002 22.6875ZM13.3127 14.25V20.25C13.3127 20.3992 13.2535 20.5423 13.148 20.6477C13.0425 20.7532 12.8994 20.8125 12.7502 20.8125C12.6011 20.8125 12.458 20.7532 12.3525 20.6477C12.247 20.5423 12.1877 20.3992 12.1877 20.25V15.1603L11.5015 15.5034C11.4354 15.5364 11.3634 15.5561 11.2897 15.5613C11.216 15.5664 11.142 15.5571 11.0719 15.5336C11.0018 15.5102 10.9371 15.4732 10.8813 15.4248C10.8255 15.3763 10.7798 15.3174 10.7468 15.2512C10.7138 15.1851 10.6942 15.1132 10.689 15.0395C10.6838 14.9658 10.6932 14.8918 10.7166 14.8217C10.74 14.7516 10.777 14.6868 10.8255 14.631C10.8739 14.5753 10.9329 14.5296 10.999 14.4966L12.499 13.7466C12.5848 13.7037 12.6801 13.6836 12.7758 13.6879C12.8716 13.6923 12.9647 13.721 13.0462 13.7715C13.1277 13.8219 13.195 13.8923 13.2416 13.9761C13.2883 14.0598 13.3128 14.1541 13.3127 14.25ZM18.8974 16.9922L16.8752 19.6875H18.7502C18.8994 19.6875 19.0425 19.7468 19.148 19.8523C19.2535 19.9577 19.3127 20.1008 19.3127 20.25C19.3127 20.3992 19.2535 20.5423 19.148 20.6477C19.0425 20.7532 18.8994 20.8125 18.7502 20.8125H15.7502C15.6458 20.8125 15.5434 20.7834 15.4545 20.7285C15.3657 20.6736 15.2938 20.595 15.2471 20.5016C15.2004 20.4081 15.1806 20.3035 15.19 20.1995C15.1994 20.0954 15.2376 19.9961 15.3002 19.9125L18.0002 16.3125C18.078 16.2103 18.1339 16.0933 18.1646 15.9686C18.1953 15.844 18.2 15.7143 18.1785 15.5878C18.157 15.4612 18.1097 15.3404 18.0396 15.2329C17.9696 15.1253 17.8781 15.0333 17.771 14.9625C17.6639 14.8918 17.5434 14.8437 17.4169 14.8215C17.2905 14.7992 17.1609 14.8031 17.036 14.833C16.9112 14.8629 16.7938 14.9181 16.6911 14.9952C16.5885 15.0723 16.5028 15.1697 16.4393 15.2812C16.4058 15.3512 16.3581 15.4134 16.2994 15.4641C16.2406 15.5147 16.172 15.5527 16.0979 15.5755C16.0238 15.5984 15.9457 15.6056 15.8686 15.5969C15.7916 15.5881 15.7171 15.5635 15.65 15.5246C15.5829 15.4857 15.5246 15.4334 15.4787 15.3708C15.4328 15.3083 15.4003 15.237 15.3833 15.1613C15.3663 15.0856 15.3651 15.0072 15.3799 14.9311C15.3946 14.8549 15.425 14.7826 15.469 14.7188C15.6104 14.4761 15.7998 14.2648 16.0257 14.0979C16.2516 13.931 16.5092 13.8121 16.7827 13.7483C17.0563 13.6845 17.3399 13.6772 17.6164 13.7269C17.8928 13.7767 18.1561 13.8823 18.3903 14.0374C18.6244 14.1926 18.8244 14.3939 18.978 14.629C19.1316 14.8642 19.2355 15.1282 19.2834 15.4049C19.3314 15.6817 19.3223 15.9653 19.2567 16.2384C19.1911 16.5115 19.0705 16.7683 18.9021 16.9931L18.8974 16.9922Z" fill="white" stroke="white" stroke-width="2.6" mask="url(#path-2-inside-1_3272_2969)"/>
</svg>
