<svg width="24" height="24" viewBox="0 0 24 24" fill="none" xmlns="http://www.w3.org/2000/svg">
<path d="M20.7778 3H5.22222C3.99492 3 3 3.99492 3 5.22222V20.7778C3 22.0051 3.99492 23 5.22222 23H20.7778C22.0051 23 23 22.0051 23 20.7778V5.22222C23 3.99492 22.0051 3 20.7778 3Z" fill="#FF7B17" stroke="#FF7B17"/>
<path d="M18.5564 9.66699L15.1742 14.7403C15.0663 14.9024 14.9177 15.0333 14.7433 15.1199C14.5689 15.2065 14.3748 15.2457 14.1805 15.2337C13.9862 15.2217 13.7984 15.1588 13.636 15.0513C13.4736 14.9439 13.3424 14.7956 13.2553 14.6214L12.7464 13.6014C12.6594 13.4273 12.5281 13.279 12.3657 13.1716C12.2033 13.0641 12.0156 13.0012 11.8212 12.9892C11.6269 12.9771 11.4328 13.0164 11.2584 13.103C11.084 13.1896 10.9354 13.3205 10.8275 13.4825L7.44531 18.5559" fill="white"/>
<path d="M18.5564 9.66699L15.1742 14.7403C15.0663 14.9024 14.9177 15.0333 14.7433 15.1199C14.5689 15.2065 14.3748 15.2457 14.1805 15.2337C13.9862 15.2217 13.7984 15.1588 13.636 15.0513C13.4736 14.9439 13.3424 14.7956 13.2553 14.6214L12.7464 13.6014C12.6594 13.4273 12.5281 13.279 12.3657 13.1716C12.2033 13.0641 12.0156 13.0012 11.8212 12.9892C11.6269 12.9771 11.4328 13.0164 11.2584 13.103C11.084 13.1896 10.9354 13.3205 10.8275 13.4825L7.44531 18.5559" stroke="white" stroke-linecap="round" stroke-linejoin="round"/>
</svg>
