<svg width="27" height="27" viewBox="0 0 27 27" fill="none" xmlns="http://www.w3.org/2000/svg">
<path d="M4.5 2.25H19.6875C20.7318 2.25 21.7333 2.66484 22.4717 3.40327C23.2102 4.14169 23.625 5.14321 23.625 6.1875V21.375C23.625 22.2701 23.2694 23.1286 22.6365 23.7615C22.0036 24.3944 21.1451 24.75 20.25 24.75H4.5C4.20163 24.75 3.91548 24.6315 3.7045 24.4205C3.49353 24.2095 3.375 23.9234 3.375 23.625V3.375C3.375 3.07663 3.49353 2.79048 3.7045 2.5795C3.91548 2.36853 4.20163 2.25 4.5 2.25ZM5.625 4.5V7.875H19.6875C20.1351 7.875 20.5643 7.69721 20.8807 7.38074C21.1972 7.06427 21.375 6.63505 21.375 6.1875C21.375 5.73995 21.1972 5.31073 20.8807 4.99426C20.5643 4.67779 20.1351 4.5 19.6875 4.5H5.625Z" fill="#FFA629"/>
</svg>
