<svg width="24" height="24" viewBox="0 0 24 24" fill="none" xmlns="http://www.w3.org/2000/svg">
<path d="M18.5554 9.66675L15.1732 14.7401C15.0653 14.9022 14.9168 15.0331 14.7424 15.1197C14.568 15.2063 14.3739 15.2455 14.1795 15.2335C13.9852 15.2214 13.7974 15.1585 13.635 15.0511C13.4727 14.9436 13.3414 14.7954 13.2543 14.6212L12.7454 13.6012C12.6584 13.427 12.5271 13.2788 12.3647 13.1713C12.2024 13.0639 12.0146 13.001 11.8203 12.9889C11.6259 12.9769 11.4318 13.0161 11.2574 13.1027C11.083 13.1893 10.9344 13.3202 10.8266 13.4823L7.44434 18.5556" stroke="black" stroke-width="1.5" stroke-linecap="round" stroke-linejoin="round"/>
<path d="M20.7778 3H5.22222C3.99492 3 3 3.99492 3 5.22222V20.7778C3 22.0051 3.99492 23 5.22222 23H20.7778C22.0051 23 23 22.0051 23 20.7778V5.22222C23 3.99492 22.0051 3 20.7778 3Z" stroke="black" stroke-width="1.5"/>
</svg>
