<svg width="8" height="12" viewBox="0 0 8 12" fill="none" xmlns="http://www.w3.org/2000/svg">
<path d="M0.30592 11.7359C0.11004 11.5667 -4.76837e-07 11.3373 -4.76837e-07 11.098C-4.76837e-07 10.8588 0.11004 10.6294 0.30592 10.4602L5.47795 5.99455L0.30592 1.52889C0.115591 1.35874 0.0102754 1.13086 0.0126562 0.894314C0.0150366 0.657773 0.124922 0.431501 0.318647 0.264234C0.512371 0.0969675 0.774434 0.00209022 1.04839 3.50475e-05C1.32235 -0.00202107 1.58628 0.0889108 1.78334 0.253245L7.69408 5.35673C7.88996 5.52591 8 5.75533 8 5.99455C8 6.23377 7.88996 6.4632 7.69408 6.63238L1.78334 11.7359C1.5874 11.905 1.32169 12 1.04463 12C0.767573 12 0.501859 11.905 0.30592 11.7359Z" fill="#010101"/>
</svg>
