<svg width="45" height="45" viewBox="0 0 45 45" fill="none" xmlns="http://www.w3.org/2000/svg">
<circle cx="22.5" cy="22.5" r="22.5" fill="#CCFBF1"/>
<path fill-rule="evenodd" clip-rule="evenodd" d="M21.6623 16.6648C22.1336 16.6648 22.5856 16.5243 22.9189 16.2744C23.2522 16.0245 23.4394 15.6855 23.4394 15.332C23.4394 14.9785 23.2522 14.6395 22.9189 14.3896C22.5856 14.1396 22.1336 13.9992 21.6623 13.9992C21.191 13.9992 20.739 14.1396 20.4058 14.3896C20.0725 14.6395 19.8853 14.9785 19.8853 15.332C19.8853 15.6855 20.0725 16.0245 20.4058 16.2744C20.739 16.5243 21.191 16.6648 21.6623 16.6648ZM21.6623 12C22.6865 11.9998 23.6793 12.2651 24.4727 12.7508C25.266 13.2366 25.8113 13.913 26.0161 14.6656H30.5476C31.0189 14.6656 31.4709 14.806 31.8042 15.0559C32.1374 15.3059 32.3247 15.6449 32.3247 15.9984V31.9919C32.3247 32.3453 32.1374 32.6843 31.8042 32.9343C31.4709 33.1842 31.0189 33.3247 30.5476 33.3247H12.7771C12.3058 33.3247 11.8537 33.1842 11.5205 32.9343C11.1872 32.6843 11 32.3453 11 31.9919V15.9984C11 15.6449 11.1872 15.3059 11.5205 15.0559C11.8537 14.806 12.3058 14.6656 12.7771 14.6656H17.3085C17.5134 13.913 18.0586 13.2366 18.852 12.7508C19.6454 12.2651 20.6382 11.9998 21.6623 12ZM19.8853 18.664H26.105V16.6648H29.6591V31.3255H13.6656V16.6648H17.2197V18.664H19.8853ZM26.1583 23.0355C26.2892 22.944 26.3942 22.8336 26.4671 22.711C26.5399 22.5884 26.5791 22.456 26.5823 22.3218C26.5854 22.1876 26.5525 22.0543 26.4855 21.9298C26.4184 21.8054 26.3187 21.6923 26.1921 21.5974C26.0655 21.5025 25.9148 21.4276 25.7488 21.3774C25.5829 21.3271 25.4051 21.3024 25.2262 21.3048C25.0472 21.3071 24.8707 21.3365 24.7072 21.3911C24.5438 21.4458 24.3966 21.5245 24.2746 21.6228L20.7738 24.2483L19.9386 23.6219C19.6859 23.4454 19.3518 23.3492 19.0065 23.3538C18.6612 23.3584 18.3318 23.4633 18.0876 23.6464C17.8434 23.8296 17.7035 24.0767 17.6974 24.3356C17.6913 24.5946 17.8195 24.8452 18.0549 25.0347L19.832 26.3675C20.0819 26.5547 20.4206 26.6598 20.7738 26.6598C21.127 26.6598 21.4657 26.5547 21.7156 26.3675L26.1583 23.0355Z" fill="#0F766E"/>
</svg>
