<svg width="30" height="30" viewBox="0 0 30 30" fill="none" xmlns="http://www.w3.org/2000/svg">
<rect width="30" height="30" rx="5" fill="#FF7B17"/>
<path d="M14.5 5.5C17.0196 5.5 19.4359 6.50089 21.2175 8.28249C22.9991 10.0641 24 12.4804 24 15C24 17.5196 22.9991 19.9359 21.2175 21.7175C19.4359 23.4991 17.0196 24.5 14.5 24.5C11.9804 24.5 9.56408 23.4991 7.78249 21.7175C6.00089 19.9359 5 17.5196 5 15C5 12.4804 6.00089 10.0641 7.78249 8.28249C9.56408 6.50089 11.9804 5.5 14.5 5.5ZM14.5 6.5C12.2457 6.5 10.0837 7.39553 8.48959 8.98959C6.89553 10.5837 6 12.7457 6 15C6 17.2543 6.89553 19.4163 8.48959 21.0104C10.0837 22.6045 12.2457 23.5 14.5 23.5C15.6162 23.5 16.7215 23.2801 17.7528 22.853C18.7841 22.4258 19.7211 21.7997 20.5104 21.0104C21.2997 20.2211 21.9258 19.2841 22.353 18.2528C22.7801 17.2215 23 16.1162 23 15C23 12.7457 22.1045 10.5837 20.5104 8.98959C18.9163 7.39553 16.7543 6.5 14.5 6.5ZM14 9.5H15V14.92L19.7 17.63L19.2 18.5L14 15.5V9.5Z" fill="white"/>
</svg>
